<svg width="757" height="400" viewBox="0 0 757 400" fill="none" xmlns="http://www.w3.org/2000/svg">
<path d="M-466.766 480.91C-466.766 480.91 -384.149 -176.51 -121.883 125.523C140.559 427.712 111.367 -175.792 422.852 -49.0535C760.555 88.3284 733.814 575.292 733.814 575.292" stroke="white" stroke-width="0.6" stroke-miterlimit="10"/>
<path d="M-463.011 483.353C-463.011 483.353 -381.798 -167.713 -120.886 131.464C-97.6267 158.35 -76.6147 177.794 -57.5331 191.527C136.678 330.428 139.848 -150.715 419.538 -37.25C752.109 97.5634 727.403 575.848 728.529 581.205" stroke="white" stroke-width="0.6" stroke-miterlimit="10"/>
<path d="M-459.238 485.795C-459.238 485.795 -379.452 -159.232 -120.109 137.087C-97.1075 163.38 -76.3711 182.941 -57.2907 196.672C135.378 335.289 140.581 -137.113 416.25 -26.1356C743.894 106.111 720.863 575.691 723.487 586.009" stroke="white" stroke-width="0.6" stroke-miterlimit="10"/>
<path d="M-455.288 488.388C-455.288 488.388 -377.107 -150.752 -118.982 143.02C-96.1587 169.155 -75.5028 188.28 -56.698 202.129C134.428 340.458 141.486 -123.357 413.212 -14.4338C735.85 114.811 714.768 575.566 718.693 591.396" stroke="white" stroke-width="0.6" stroke-miterlimit="10"/>
<path d="M-451.514 490.828C-451.514 490.828 -374.76 -142.275 -118.106 148.365C-95.5394 173.906 -75.1591 193.148 -56.3554 206.996C133.229 345.04 142.143 -110.194 410.202 -3.44258C727.64 123.355 708.507 575.289 713.558 596.473" stroke="white" stroke-width="0.6" stroke-miterlimit="10"/>
<path d="M-447.565 493.421C-447.565 493.421 -372.239 -133.636 -116.979 154.3C-94.591 179.682 -74.3888 198.765 -55.7632 212.454C132.279 350.211 143.224 -96.2802 407.163 8.25939C719.497 132.332 702.215 575.718 708.666 602.136" stroke="white" stroke-width="0.6" stroke-miterlimit="10"/>
<path d="M-443.79 495.861C-443.79 495.861 -370.068 -125.317 -116.2 159.92C-94.1673 184.985 -74.0453 203.633 -55.4209 217.321C131.177 354.517 143.782 -82.8437 403.976 19.0914C711.386 140.598 696.052 575.165 703.726 606.66" stroke="white" stroke-width="0.6" stroke-miterlimit="10"/>
<path d="M-439.842 498.454C-439.842 498.454 -367.254 -117.508 -115.073 165.852C-93.1208 190.482 -73.2745 209.247 -54.828 222.777C130.228 359.686 144.687 -69.0929 401.037 30.513C703.247 149.572 689.861 575.318 698.934 612.045" stroke="white" stroke-width="0.6" stroke-miterlimit="10"/>
<path d="M-436.068 500.897C-436.068 500.897 -364.81 -109.298 -114.298 171.478C-92.7001 195.791 -72.9343 214.121 -54.5867 227.925C128.926 364.547 145.417 -55.4923 397.825 42.0601C695.029 158.12 683.494 575.32 693.868 617.555" stroke="white" stroke-width="0.6" stroke-miterlimit="10"/>
<path d="M-432.121 503.488C-432.121 503.488 -362.289 -100.67 -113.072 177.131C-91.5547 201.009 -72.0644 219.456 -53.8947 233.101C128.077 369.436 146.422 -42.0259 394.988 53.1985C687.093 166.536 677.407 575.197 689.004 622.505" stroke="white" stroke-width="0.6" stroke-miterlimit="10"/>
<path d="M-428.243 505.653C-428.243 505.653 -360.015 -92.6196 -112.191 182.479C-91.029 206.04 -71.7167 224.327 -53.5483 237.971C126.881 374.019 147.079 -28.863 391.704 64.3084C678.884 175.08 671.146 574.922 683.964 627.302" stroke="white" stroke-width="0.6" stroke-miterlimit="10"/>
<path d="M-424.294 508.246C-424.294 508.246 -357.395 -84.2611 -111.064 188.411C-89.9818 211.537 -70.8476 229.666 -52.9547 243.427C125.933 379.187 148.161 -14.96 388.767 75.7261C670.846 183.775 665.055 574.8 679.174 632.685" stroke="white" stroke-width="0.6" stroke-miterlimit="10"/>
<path d="M-420.521 510.689C-420.521 510.689 -355.049 -75.7757 -110.288 194.037C-89.5613 216.846 -70.6051 234.815 -52.7135 248.575C124.632 384.048 148.731 -2.23006 385.555 87.2693C662.552 191.888 658.591 575.08 674.109 638.191" stroke="white" stroke-width="0.6" stroke-miterlimit="10"/>
<path d="M-416.745 513.133C-416.745 513.133 -352.876 -67.4502 -109.332 199.819C-88.7826 222.468 -70.0044 240.279 -52.2907 253.88C123.513 389.066 149.465 11.3623 382.448 98.5344C654.62 200.314 652.331 574.811 668.973 643.267" stroke="white" stroke-width="0.6" stroke-miterlimit="10"/>
<path d="M-412.797 515.731C-412.797 515.731 -350.354 -58.8132 -108.282 205.322C-87.9903 227.379 -69.3901 245.031 -51.7752 258.906C122.31 393.647 150.468 24.8322 379.335 109.795C646.409 208.854 645.969 574.813 664.106 648.219" stroke="white" stroke-width="0.6" stroke-miterlimit="10"/>
<path d="M-409.024 518.176C-409.024 518.176 -347.909 -50.6041 -107.505 210.949C-87.3912 232.846 -68.9689 250.339 -51.5319 264.056C121.012 398.508 151.022 38.2667 376.048 120.903C638.023 217.241 639.706 574.546 658.966 653.294" stroke="white" stroke-width="0.6" stroke-miterlimit="10"/>
<path d="M-405.076 520.773C-405.076 520.773 -345.387 -41.9619 -106.379 216.887C-86.6203 238.468 -68.2786 255.526 -50.9406 269.516C120.06 403.679 151.922 52.0137 373.184 132.755C630.059 226.372 633.59 575.137 654.248 659.107" stroke="white" stroke-width="0.6" stroke-miterlimit="10"/>
<path d="M-401.3 523.22C-401.3 523.22 -343.214 -33.6321 -105.6 222.516C-85.9216 243.662 -67.8554 260.836 -50.6953 274.668C118.764 408.543 152.477 65.4482 369.899 143.864C621.677 234.76 627.153 574.716 649.11 664.182" stroke="white" stroke-width="0.6" stroke-miterlimit="10"/>
<path d="M-397.353 525.813C-397.353 525.813 -340.693 -25.0045 -104.373 228.169C-85.0494 248.999 -67.161 266.014 -49.9047 279.569C118.111 412.881 153.755 78.7863 367.064 154.995C613.844 242.897 621.167 574.322 644.247 669.128" stroke="white" stroke-width="0.6" stroke-miterlimit="10"/>
<path d="M-393.579 528.261C-393.579 528.261 -338.246 -16.7934 -103.595 233.798C-84.5276 254.035 -66.6406 271.049 -49.6597 284.72C116.62 418.294 154.31 92.2177 363.779 166.101C605.639 251.441 614.809 574.334 639.207 673.926" stroke="white" stroke-width="0.6" stroke-miterlimit="10"/>
<path d="M-389.63 530.856C-389.63 530.856 -335.9 -8.31317 -102.467 239.733C-83.5783 259.81 -66.0459 276.508 -49.0664 290.178C115.671 423.462 155.211 105.955 361.016 177.669C597.779 260.29 608.894 574.375 634.59 679.459" stroke="white" stroke-width="0.6" stroke-miterlimit="10"/>
<path d="M-385.857 533.311C-385.857 533.311 -333.552 0.182264 -101.69 245.37C-83.1557 265.131 -65.6247 281.826 -48.9997 295.18C114.196 428.175 155.586 119.235 357.455 188.9C589.122 268.802 602.083 574.357 629.176 684.656" stroke="white" stroke-width="0.6" stroke-miterlimit="10"/>
<path d="M-381.909 535.912C-381.909 535.912 -331.029 8.82083 -100.561 251.308C-82.1073 270.634 -64.9307 287.014 -48.4045 300.642C113.25 433.347 156.666 133.129 354.52 200.312C581.092 277.497 595.997 574.248 624.212 689.88" stroke="white" stroke-width="0.6" stroke-miterlimit="10"/>
<path d="M-378.133 538.359C-378.133 538.359 -328.854 17.1514 -99.6837 256.661C-81.5845 275.671 -64.4094 292.049 -48.0611 305.518C112.051 437.933 157.317 146.28 351.411 211.571C572.888 286.038 589.736 573.986 619.347 694.83" stroke="white" stroke-width="0.6" stroke-miterlimit="10"/>
<path d="M-374.186 540.958C-374.186 540.958 -326.331 25.7903 -98.556 262.599C-80.5373 281.174 -63.8141 297.511 -47.4673 310.978C111.103 443.103 158.218 160.013 348.474 222.98C565.033 294.887 583.726 574.309 614.556 700.207" stroke="white" stroke-width="0.6" stroke-miterlimit="10"/>
<path d="M-370.412 543.413C-370.412 543.413 -323.982 34.2855 -97.779 268.235C-80.1148 286.494 -63.2958 302.553 -47.2243 316.137C109.805 447.971 158.768 173.443 345.088 234.362C556.553 303.552 577.189 574.173 609.316 705.556" stroke="white" stroke-width="0.6" stroke-miterlimit="10"/>
<path d="M-366.465 546.014C-366.465 546.014 -321.636 42.7675 -96.6502 274.174C-79.164 292.274 -62.6992 308.017 -46.6292 321.599C108.859 453.142 159.846 187.331 342.153 245.77C548.624 311.969 571.007 574.342 604.352 710.777" stroke="white" stroke-width="0.6" stroke-miterlimit="10"/>
<path d="M-362.691 548.467C-362.691 548.467 -319.286 51.2624 -95.8725 279.81C-78.6433 297.318 -62.1801 313.059 -46.3855 326.757C107.56 458.008 160.395 200.757 338.943 257.305C540.321 320.789 564.645 574.363 599.385 716.003" stroke="white" stroke-width="0.6" stroke-miterlimit="10"/>
<path d="M-358.917 550.912C-358.917 550.912 -316.935 59.7432 -94.8191 285.316C-77.7679 302.665 -61.6589 318.09 -45.8657 331.786C106.539 462.747 161.222 214.052 335.934 268.278C532.397 329.203 558.565 574.259 594.523 720.946" stroke="white" stroke-width="0.6" stroke-miterlimit="10"/>
<path d="M-354.969 553.521C-354.969 553.521 -314.587 68.2357 -93.867 291.107C-77.1702 308.139 -61.0628 323.562 -45.4475 337.1C105.416 467.768 162.121 227.786 332.723 279.808C524.095 338.019 552.204 574.28 589.458 726.444" stroke="white" stroke-width="0.6" stroke-miterlimit="10"/>
<path d="M-351.194 555.966C-351.194 555.966 -312.236 76.7161 -92.91 296.888C-76.2937 313.486 -60.5404 328.593 -44.9266 342.129C104.317 472.074 162.948 241.077 329.716 290.778C515.998 346.276 546.047 573.746 584.598 731.387" stroke="white" stroke-width="0.6" stroke-miterlimit="10"/>
<path d="M-347.145 558.288C-347.145 558.288 -309.61 85.0739 -91.8555 302.389C-75.5934 318.671 -59.8417 333.776 -44.4056 347.153C103.297 476.806 163.774 254.36 326.883 301.897C508.076 354.682 539.968 573.638 579.833 736.046" stroke="white" stroke-width="0.6" stroke-miterlimit="10"/>
<path d="M-343.372 560.739C-343.372 560.739 -307.436 93.4067 -90.8031 307.903C-74.7189 324.026 -59.3214 338.814 -43.8869 352.19C102.664 480.45 164.597 267.655 323.774 313.147C499.878 363.218 533.71 573.386 574.87 741.265" stroke="white" stroke-width="0.6" stroke-miterlimit="10"/>
<path d="M-339.422 563.345C-339.422 563.345 -304.91 102.049 -89.8479 313.689C-74.0204 329.221 -58.6245 344.007 -43.4652 357.498C101.545 485.466 165.5 281.375 320.666 324.391C491.859 371.907 527.532 573.564 569.909 746.481" stroke="white" stroke-width="0.6" stroke-miterlimit="10"/>
<path d="M-335.649 565.802C-335.649 565.802 -302.735 110.389 -88.8941 319.485C-73.2447 334.857 -58.2029 349.327 -43.0453 362.816C100.034 491.59 166.125 295.222 317.457 335.918C483.561 380.723 521.173 573.594 564.845 751.977" stroke="white" stroke-width="0.6" stroke-miterlimit="10"/>
<path d="M-331.701 568.408C-331.701 568.408 -300.21 119.03 -87.9395 325.27C-72.5468 340.051 -57.5066 354.519 -42.6242 368.124C98.9144 496.605 166.85 308.781 314.526 347.315C475.544 389.41 515.094 573.499 559.884 757.191" stroke="white" stroke-width="0.6" stroke-miterlimit="10"/>
<path d="M-327.928 570.868C-327.928 570.868 -297.859 127.528 -87.1611 330.911C-71.9463 345.533 -57.2602 359.685 -42.3794 373.288C97.618 501.474 167.396 322.193 311.143 358.684C467.075 398.068 508.465 573.651 554.744 762.256" stroke="white" stroke-width="0.6" stroke-miterlimit="10"/>
<path d="M-323.981 573.469C-323.981 573.469 -295.606 136.279 -85.9324 336.571C-71.0717 350.878 -56.3871 365.028 -41.684 378.471C96.7734 506.364 168.571 335.779 308.311 369.796C459.335 406.628 502.486 573.277 550.059 767.344" stroke="white" stroke-width="0.6" stroke-miterlimit="10"/>
<path d="M-320.206 575.93C-320.206 575.93 -293.254 144.777 -85.1522 342.212C-70.372 356.085 -56.0414 369.919 -41.4373 383.635C95.5765 510.958 169.119 349.186 304.93 381.16C450.869 415.284 496.036 573.589 544.824 772.681" stroke="white" stroke-width="0.6" stroke-miterlimit="10"/>
<path d="M-316.259 578.532C-316.259 578.532 -290.728 153.415 -84.0224 348.15C-69.5961 361.707 -55.2672 375.539 -40.8409 389.096C94.6322 516.124 169.92 363.162 302.173 392.703C443.029 424.12 490.132 573.65 540.213 778.197" stroke="white" stroke-width="0.6" stroke-miterlimit="10"/>
<path d="M-312.486 580.998C-312.486 580.998 -288.648 162.035 -83.2421 353.796C-68.9937 367.194 -54.9214 380.436 -40.5941 394.265C93.4358 520.723 170.643 376.726 298.793 404.069C434.469 433.053 483.508 573.812 534.9 783.105" stroke="white" stroke-width="0.6" stroke-miterlimit="10"/>
<path d="M-308.538 583.603C-308.538 583.603 -286.121 170.673 -82.1103 359.736C-68.1185 372.544 -54.1451 386.057 -39.9956 399.727C92.5916 525.615 171.543 390.423 295.864 415.452C426.635 441.886 477.432 573.721 530.117 788.465" stroke="white" stroke-width="0.6" stroke-miterlimit="10"/>
<path d="M-304.765 586.054C-304.765 586.054 -283.865 179.424 -81.2299 365.087C-67.5918 377.579 -53.6987 390.659 -39.5507 404.327C91.4977 529.921 172.29 403.255 292.686 426.245C418.379 449.974 471.287 573.201 525.088 793.24" stroke="white" stroke-width="0.6" stroke-miterlimit="10"/>
<path d="M-300.817 588.658C-300.817 588.658 -281.513 187.905 -80.0983 371.026C-66.6379 383.36 -53.0987 396.124 -38.9524 409.789C90.5559 535.087 173.267 417.378 289.932 437.78C410.545 458.805 465.29 573.543 520.48 798.752" stroke="white" stroke-width="0.6" stroke-miterlimit="10"/>
<path d="M-297.043 591.118C-297.043 591.118 -279.257 196.667 -79.3152 376.661C-66.1112 388.405 -52.6708 401.441 -38.7022 414.947C89.0911 539.793 173.818 430.762 286.657 448.852C402.271 467.605 458.87 573.153 515.273 803.375" stroke="white" stroke-width="0.6" stroke-miterlimit="10"/>
<path d="M-293.271 593.576C-293.271 593.576 -275.932 202.414 -78.359 382.453C-65.4299 394.313 -52.1487 406.485 -38.2791 420.263C87.9742 544.811 174.442 444.575 283.454 460.353C393.991 476.403 452.426 573.467 510.217 808.854" stroke="white" stroke-width="0.6" stroke-miterlimit="10"/>
<path d="M-289.323 596.18C-289.323 596.18 -273.773 211.431 -77.3011 387.955C-64.6282 399.224 -51.4457 411.669 -37.9296 425.131C86.7861 549.386 175.269 457.821 280.282 471.131C385.92 484.637 446.111 572.792 505.194 813.621" stroke="white" stroke-width="0.6" stroke-miterlimit="10"/>
<path d="M-285.549 598.637C-285.549 598.637 -272.39 222.664 -76.3428 393.747C-63.7504 404.583 -50.9217 416.712 -37.5046 430.446C85.6712 554.402 175.894 471.626 277.257 482.783C377.722 493.862 440.021 573.421 500.315 819.25" stroke="white" stroke-width="0.6" stroke-miterlimit="10"/>
<path d="M-281.603 601.243C-281.603 601.243 -269.959 231.564 -75.3851 399.524C-63.1461 410.046 -50.3188 422.173 -37.0792 435.748C84.559 559.408 176.796 485.298 274.16 493.989C369.552 502.369 433.783 573.182 495.288 824.015" stroke="white" stroke-width="0.6" stroke-miterlimit="10"/>
<path d="M-277.829 603.701C-277.829 603.701 -268.07 240.715 -74.4244 405.314C-62.3629 415.677 -49.8891 427.488 -36.6513 441.061C83.448 564.422 177.424 499.094 270.965 505.477C361.363 511.589 427.445 573.226 490.24 829.487" stroke="white" stroke-width="0.6" stroke-miterlimit="10"/>
<path d="M-273.881 606.306C-273.881 606.306 -265.54 249.342 -73.4647 411.092C-61.7566 421.14 -49.1872 432.675 -36.224 446.362C82.3375 569.427 178.131 513.307 267.869 516.678C353.275 520.523 421.111 573.262 485.293 834.677" stroke="white" stroke-width="0.6" stroke-miterlimit="10"/>
<path d="M-270.005 608.467C-270.005 608.467 -262.291 213.54 -35.5928 451.1C191.105 688.66 345.387 288.175 480.552 839.304" stroke="white" stroke-width="0.6" stroke-miterlimit="10"/>
</svg>
