<svg width="466" height="119" viewBox="0 0 466 119" fill="none" xmlns="http://www.w3.org/2000/svg">
<path d="M3.55 46V10.75H11.3V24.9H27.7V10.75H35.45V46H27.7V31.35H11.3V46H3.55ZM49.2137 46.55C47.3803 46.55 45.7637 46.2 44.3637 45.5C42.9637 44.8 41.847 43.85 41.0137 42.65C40.2137 41.45 39.8137 40.1 39.8137 38.6C39.8137 36.8333 40.2803 35.4167 41.2137 34.35C42.147 33.2833 43.6637 32.5333 45.7637 32.1C47.8637 31.6333 50.647 31.4 54.1137 31.4H55.9137V30.55C55.9137 29.0833 55.5803 28.05 54.9137 27.45C54.247 26.8167 53.1137 26.5 51.5137 26.5C50.1803 26.5 48.7637 26.7167 47.2637 27.15C45.797 27.55 44.3303 28.1667 42.8637 29L40.8137 23.95C41.6803 23.3833 42.7303 22.8667 43.9637 22.4C45.2303 21.9333 46.547 21.5833 47.9137 21.35C49.2803 21.0833 50.5803 20.95 51.8137 20.95C55.6137 20.95 58.447 21.8167 60.3137 23.55C62.1803 25.25 63.1137 27.9 63.1137 31.5V46H56.0637V42.3C55.5637 43.6 54.7137 44.6333 53.5137 45.4C52.347 46.1667 50.9137 46.55 49.2137 46.55ZM50.9137 41.5C52.3137 41.5 53.497 41.0167 54.4637 40.05C55.4303 39.0833 55.9137 37.8333 55.9137 36.3V35.3H54.1637C51.597 35.3 49.7803 35.5333 48.7137 36C47.647 36.4333 47.1137 37.2 47.1137 38.3C47.1137 39.2333 47.4303 40 48.0637 40.6C48.7303 41.2 49.6803 41.5 50.9137 41.5ZM67.7457 55V21.45H75.1457V25.1C75.8124 23.8333 76.829 22.8333 78.1957 22.1C79.5957 21.3333 81.1624 20.95 82.8957 20.95C85.029 20.95 86.8957 21.4667 88.4957 22.5C90.129 23.5333 91.3957 25 92.2957 26.9C93.1957 28.8 93.6457 31.0667 93.6457 33.7C93.6457 36.3333 93.1957 38.6167 92.2957 40.55C91.3957 42.45 90.129 43.9333 88.4957 45C86.8957 46.0333 85.029 46.55 82.8957 46.55C81.2624 46.55 79.7624 46.2 78.3957 45.5C77.0624 44.8 76.029 43.8667 75.2957 42.7V55H67.7457ZM80.6457 40.9C82.2457 40.9 83.5457 40.3167 84.5457 39.15C85.5457 37.9833 86.0457 36.1667 86.0457 33.7C86.0457 31.2667 85.5457 29.4833 84.5457 28.35C83.5457 27.1833 82.2457 26.6 80.6457 26.6C79.0124 26.6 77.6957 27.1833 76.6957 28.35C75.6957 29.4833 75.1957 31.2667 75.1957 33.7C75.1957 36.1667 75.6957 37.9833 76.6957 39.15C77.6957 40.3167 79.0124 40.9 80.6457 40.9ZM97.2633 55V21.45H104.663V25.1C105.33 23.8333 106.347 22.8333 107.713 22.1C109.113 21.3333 110.68 20.95 112.413 20.95C114.547 20.95 116.413 21.4667 118.013 22.5C119.647 23.5333 120.913 25 121.813 26.9C122.713 28.8 123.163 31.0667 123.163 33.7C123.163 36.3333 122.713 38.6167 121.813 40.55C120.913 42.45 119.647 43.9333 118.013 45C116.413 46.0333 114.547 46.55 112.413 46.55C110.78 46.55 109.28 46.2 107.913 45.5C106.58 44.8 105.547 43.8667 104.813 42.7V55H97.2633ZM110.163 40.9C111.763 40.9 113.063 40.3167 114.063 39.15C115.063 37.9833 115.563 36.1667 115.563 33.7C115.563 31.2667 115.063 29.4833 114.063 28.35C113.063 27.1833 111.763 26.6 110.163 26.6C108.53 26.6 107.213 27.1833 106.213 28.35C105.213 29.4833 104.713 31.2667 104.713 33.7C104.713 36.1667 105.213 37.9833 106.213 39.15C107.213 40.3167 108.53 40.9 110.163 40.9ZM128.095 55L132.795 44.65L122.695 21.45H130.645L136.795 37.05L143.145 21.45H150.645L135.795 55H128.095ZM165.421 46V10.75H189.221V16.8H173.171V25.4H188.121V31.45H173.171V46H165.421ZM199.61 46.55C197.777 46.55 196.16 46.2 194.76 45.5C193.36 44.8 192.243 43.85 191.41 42.65C190.61 41.45 190.21 40.1 190.21 38.6C190.21 36.8333 190.677 35.4167 191.61 34.35C192.543 33.2833 194.06 32.5333 196.16 32.1C198.26 31.6333 201.043 31.4 204.51 31.4H206.31V30.55C206.31 29.0833 205.977 28.05 205.31 27.45C204.643 26.8167 203.51 26.5 201.91 26.5C200.577 26.5 199.16 26.7167 197.66 27.15C196.193 27.55 194.727 28.1667 193.26 29L191.21 23.95C192.077 23.3833 193.127 22.8667 194.36 22.4C195.627 21.9333 196.943 21.5833 198.31 21.35C199.677 21.0833 200.977 20.95 202.21 20.95C206.01 20.95 208.843 21.8167 210.71 23.55C212.577 25.25 213.51 27.9 213.51 31.5V46H206.46V42.3C205.96 43.6 205.11 44.6333 203.91 45.4C202.743 46.1667 201.31 46.55 199.61 46.55ZM201.31 41.5C202.71 41.5 203.893 41.0167 204.86 40.05C205.827 39.0833 206.31 37.8333 206.31 36.3V35.3H204.56C201.993 35.3 200.177 35.5333 199.11 36C198.043 36.4333 197.51 37.2 197.51 38.3C197.51 39.2333 197.827 40 198.46 40.6C199.127 41.2 200.077 41.5 201.31 41.5ZM218.242 46V21.45H225.642V25C226.376 23.7333 227.376 22.75 228.642 22.05C229.942 21.3167 231.442 20.95 233.142 20.95C234.876 20.95 236.342 21.3333 237.542 22.1C238.776 22.8667 239.709 24.0333 240.342 25.6C241.109 24.1333 242.209 23 243.642 22.2C245.109 21.3667 246.726 20.95 248.492 20.95C251.292 20.95 253.376 21.8 254.742 23.5C256.109 25.1667 256.792 27.75 256.792 31.25V46H249.242V31.5C249.242 29.8667 248.976 28.6833 248.442 27.95C247.942 27.1833 247.076 26.8 245.842 26.8C244.409 26.8 243.292 27.3 242.492 28.3C241.692 29.3 241.292 30.7167 241.292 32.55V46H233.742V31.5C233.742 29.8667 233.476 28.6833 232.942 27.95C232.409 27.1833 231.542 26.8 230.342 26.8C228.909 26.8 227.792 27.3 226.992 28.3C226.192 29.3 225.792 30.7167 225.792 32.55V46H218.242ZM261.276 16.7V9.65H269.426V16.7H261.276ZM261.576 46V21.45H269.126V46H261.576ZM283.105 46.55C279.938 46.55 277.621 45.7333 276.155 44.1C274.688 42.4333 273.955 39.9667 273.955 36.7V10.75H281.505V36.4C281.505 39.0667 282.688 40.4 285.055 40.4C285.421 40.4 285.771 40.3833 286.105 40.35C286.471 40.3167 286.821 40.25 287.155 40.15L287.055 46C285.788 46.3667 284.471 46.55 283.105 46.55ZM290.821 55L295.521 44.65L285.421 21.45H293.371L299.521 37.05L305.871 21.45H313.371L298.521 55H290.821ZM327.198 16.7V9.65H335.348V16.7H327.198ZM327.498 46V21.45H335.048V46H327.498ZM349.277 46.55C347.11 46.55 345.093 46.3 343.227 45.8C341.36 45.3 339.81 44.6167 338.577 43.75L340.377 38.85C341.61 39.6167 343.01 40.2333 344.577 40.7C346.177 41.1333 347.76 41.35 349.327 41.35C350.727 41.35 351.76 41.1333 352.427 40.7C353.093 40.2333 353.427 39.6333 353.427 38.9C353.427 37.7333 352.577 37 350.877 36.7L345.627 35.75C343.527 35.3833 341.927 34.6333 340.827 33.5C339.727 32.3667 339.177 30.8833 339.177 29.05C339.177 27.3833 339.643 25.95 340.577 24.75C341.51 23.55 342.793 22.6167 344.427 21.95C346.06 21.2833 347.943 20.95 350.077 20.95C351.843 20.95 353.56 21.1833 355.227 21.65C356.893 22.0833 358.327 22.7833 359.527 23.75L357.627 28.6C356.627 27.8667 355.427 27.2667 354.027 26.8C352.66 26.3333 351.377 26.1 350.177 26.1C348.677 26.1 347.593 26.35 346.927 26.85C346.26 27.3167 345.927 27.9167 345.927 28.65C345.927 29.8167 346.71 30.55 348.277 30.85L353.527 31.8C355.693 32.1667 357.343 32.9 358.477 34C359.61 35.0667 360.177 36.5333 360.177 38.4C360.177 40.9667 359.177 42.9667 357.177 44.4C355.177 45.8333 352.543 46.55 349.277 46.55ZM388.202 46.55C385.569 46.55 383.269 46.0333 381.302 45C379.369 43.9333 377.869 42.45 376.802 40.55C375.735 38.6167 375.202 36.3333 375.202 33.7C375.202 31.1 375.735 28.85 376.802 26.95C377.869 25.0167 379.369 23.5333 381.302 22.5C383.269 21.4667 385.569 20.95 388.202 20.95C390.835 20.95 393.119 21.4667 395.052 22.5C397.019 23.5333 398.535 25.0167 399.602 26.95C400.702 28.85 401.252 31.1 401.252 33.7C401.252 36.3333 400.702 38.6167 399.602 40.55C398.535 42.45 397.019 43.9333 395.052 45C393.119 46.0333 390.835 46.55 388.202 46.55ZM388.202 40.9C389.802 40.9 391.102 40.3167 392.102 39.15C393.135 37.9833 393.652 36.1667 393.652 33.7C393.652 31.2667 393.135 29.4833 392.102 28.35C391.102 27.1833 389.802 26.6 388.202 26.6C386.602 26.6 385.302 27.1833 384.302 28.35C383.302 29.4833 382.802 31.2667 382.802 33.7C382.802 36.1667 383.302 37.9833 384.302 39.15C385.302 40.3167 386.602 40.9 388.202 40.9ZM413.895 46.55C410.762 46.55 408.445 45.6833 406.945 43.95C405.479 42.2167 404.745 39.6167 404.745 36.15V21.45H412.295V36.35C412.295 39.25 413.545 40.7 416.045 40.7C417.479 40.7 418.645 40.2 419.545 39.2C420.479 38.1667 420.945 36.8167 420.945 35.15V21.45H428.495V46H421.145V42.65C419.512 45.25 417.095 46.55 413.895 46.55ZM433.338 46V21.45H440.738V25.7C441.904 22.8333 444.404 21.25 448.238 20.95L450.438 20.8L450.888 27.15L446.638 27.6C442.904 27.9667 441.038 29.8667 441.038 33.3V46H433.338Z" fill="#2538A6"/>
<path d="M2.64 104V82.396H9.152V85.52C9.79733 84.4053 10.6773 83.54 11.792 82.924C12.936 82.2787 14.256 81.956 15.752 81.956C17.2773 81.956 18.568 82.2933 19.624 82.968C20.7093 83.6427 21.5307 84.6693 22.088 86.048C22.7627 84.7573 23.7307 83.76 24.992 83.056C26.2827 82.3227 27.7053 81.956 29.26 81.956C31.724 81.956 33.5573 82.704 34.76 84.2C35.9627 85.6667 36.564 87.94 36.564 91.02V104H29.92V91.24C29.92 89.8027 29.6853 88.7613 29.216 88.116C28.776 87.4413 28.0133 87.104 26.928 87.104C25.6667 87.104 24.684 87.544 23.98 88.424C23.276 89.304 22.924 90.5507 22.924 92.164V104H16.28V91.24C16.28 89.8027 16.0453 88.7613 15.576 88.116C15.1067 87.4413 14.344 87.104 13.288 87.104C12.0267 87.104 11.044 87.544 10.34 88.424C9.636 89.304 9.284 90.5507 9.284 92.164V104H2.64ZM48.0776 104.484C46.4642 104.484 45.0416 104.176 43.8096 103.56C42.5776 102.944 41.5949 102.108 40.8616 101.052C40.1576 99.996 39.8056 98.808 39.8056 97.488C39.8056 95.9333 40.2162 94.6867 41.0376 93.748C41.8589 92.8093 43.1936 92.1493 45.0416 91.768C46.8896 91.3573 49.3389 91.152 52.3896 91.152H53.9736V90.404C53.9736 89.1133 53.6802 88.204 53.0936 87.676C52.5069 87.1187 51.5096 86.84 50.1016 86.84C48.9282 86.84 47.6816 87.0307 46.3616 87.412C45.0709 87.764 43.7802 88.3067 42.4896 89.04L40.6856 84.596C41.4482 84.0973 42.3722 83.6427 43.4576 83.232C44.5722 82.8213 45.7309 82.5133 46.9336 82.308C48.1362 82.0733 49.2802 81.956 50.3656 81.956C53.7096 81.956 56.2029 82.7187 57.8456 84.244C59.4882 85.74 60.3096 88.072 60.3096 91.24V104H54.1056V100.744C53.6656 101.888 52.9176 102.797 51.8616 103.472C50.8349 104.147 49.5736 104.484 48.0776 104.484ZM49.5736 100.04C50.8056 100.04 51.8469 99.6147 52.6976 98.764C53.5482 97.9133 53.9736 96.8133 53.9736 95.464V94.584H52.4336C50.1749 94.584 48.5762 94.7893 47.6376 95.2C46.6989 95.5813 46.2296 96.256 46.2296 97.224C46.2296 98.0453 46.5082 98.72 47.0656 99.248C47.6522 99.776 48.4882 100.04 49.5736 100.04ZM64.1218 78.216V72.012H71.2938V78.216H64.1218ZM64.3858 104V82.396H71.0298V104H64.3858ZM75.2792 104V82.396H81.7912V85.564C82.5245 84.3907 83.5072 83.496 84.7392 82.88C85.9712 82.264 87.3499 81.956 88.8752 81.956C91.4272 81.956 93.3339 82.704 94.5952 84.2C95.8565 85.6667 96.4872 87.94 96.4872 91.02V104H89.8432V91.328C89.8432 89.832 89.5645 88.7613 89.0072 88.116C88.4499 87.4413 87.6285 87.104 86.5432 87.104C85.1352 87.104 84.0059 87.544 83.1552 88.424C82.3339 89.304 81.9232 90.4773 81.9232 91.944V104H75.2792ZM111.933 111.92V82.396H118.445V85.608C119.032 84.4933 119.927 83.6133 121.129 82.968C122.361 82.2933 123.74 81.956 125.265 81.956C127.143 81.956 128.785 82.4107 130.193 83.32C131.631 84.2293 132.745 85.52 133.537 87.192C134.329 88.864 134.725 90.8587 134.725 93.176C134.725 95.4933 134.329 97.5027 133.537 99.204C132.745 100.876 131.631 102.181 130.193 103.12C128.785 104.029 127.143 104.484 125.265 104.484C123.828 104.484 122.508 104.176 121.305 103.56C120.132 102.944 119.223 102.123 118.577 101.096V111.92H111.933ZM123.285 99.512C124.693 99.512 125.837 98.9987 126.717 97.972C127.597 96.9453 128.037 95.3467 128.037 93.176C128.037 91.0347 127.597 89.4653 126.717 88.468C125.837 87.4413 124.693 86.928 123.285 86.928C121.848 86.928 120.689 87.4413 119.809 88.468C118.929 89.4653 118.489 91.0347 118.489 93.176C118.489 95.3467 118.929 96.9453 119.809 97.972C120.689 98.9987 121.848 99.512 123.285 99.512ZM137.909 104V82.396H144.421V86.136C145.447 83.6133 147.647 82.22 151.021 81.956L152.957 81.824L153.353 87.412L149.613 87.808C146.327 88.1307 144.685 89.8027 144.685 92.824V104H137.909ZM154.898 78.216V72.012H162.07V78.216H154.898ZM155.162 104V82.396H161.806V104H155.162ZM176.439 104.484C174.122 104.484 172.098 104.029 170.367 103.12C168.666 102.181 167.346 100.876 166.407 99.204C165.468 97.5027 164.999 95.4933 164.999 93.176C164.999 90.888 165.468 88.908 166.407 87.236C167.346 85.5347 168.666 84.2293 170.367 83.32C172.098 82.4107 174.122 81.956 176.439 81.956C178.756 81.956 180.766 82.4107 182.467 83.32C184.198 84.2293 185.532 85.5347 186.471 87.236C187.439 88.908 187.923 90.888 187.923 93.176C187.923 95.4933 187.439 97.5027 186.471 99.204C185.532 100.876 184.198 102.181 182.467 103.12C180.766 104.029 178.756 104.484 176.439 104.484ZM176.439 99.512C177.847 99.512 178.991 98.9987 179.871 97.972C180.78 96.9453 181.235 95.3467 181.235 93.176C181.235 91.0347 180.78 89.4653 179.871 88.468C178.991 87.4413 177.847 86.928 176.439 86.928C175.031 86.928 173.887 87.4413 173.007 88.468C172.127 89.4653 171.687 91.0347 171.687 93.176C171.687 95.3467 172.127 96.9453 173.007 97.972C173.887 98.9987 175.031 99.512 176.439 99.512ZM191.085 104V82.396H197.597V86.136C198.624 83.6133 200.824 82.22 204.197 81.956L206.133 81.824L206.529 87.412L202.789 87.808C199.504 88.1307 197.861 89.8027 197.861 92.824V104H191.085ZM208.074 78.216V72.012H215.246V78.216H208.074ZM208.338 104V82.396H214.982V104H208.338ZM229.835 104.484C223.763 104.484 220.727 101.536 220.727 95.64V87.368H216.635V82.396H220.727V76.06H227.371V82.396H233.751V87.368H227.371V95.376C227.371 96.608 227.65 97.532 228.207 98.148C228.794 98.764 229.718 99.072 230.979 99.072C231.361 99.072 231.757 99.028 232.167 98.94C232.607 98.852 233.077 98.7347 233.575 98.588L234.543 103.428C233.927 103.751 233.194 104 232.343 104.176C231.493 104.381 230.657 104.484 229.835 104.484ZM238.199 111.92L242.335 102.812L233.447 82.396H240.443L245.855 96.124L251.443 82.396H258.043L244.975 111.92H238.199Z" fill="#FF4104"/>
<line y1="108.5" x2="258" y2="108.5" stroke="#FF4104" stroke-width="5"/>
<path d="M294.779 79.6469C290.838 75.9957 284.746 76.1171 280.949 80.0416C277.153 83.9678 277.022 90.2206 280.553 94.2993L294.782 109L309.009 94.2993C312.539 90.2206 312.407 83.9574 308.613 80.0416C304.812 76.1223 298.733 75.9907 294.779 79.6469Z" fill="#FF4104"/>
</svg>
