<svg width="266" height="40" viewBox="0 0 266 40" fill="none" xmlns="http://www.w3.org/2000/svg">
<rect width="266" height="40" rx="20" fill="white" fill-opacity="0.75"/>
<circle cx="20" cy="20" r="12" fill="#384ECE"/>
<path d="M14.5 19.5L19 24L26 17" stroke="white" stroke-width="2"/>
<path d="M53.312 25V13.72H57.984C59.2 13.72 60.1387 14.0133 60.8 14.6C61.4613 15.176 61.792 15.9867 61.792 17.032C61.792 17.8747 61.568 18.568 61.12 19.112C60.672 19.6453 60.0373 20.0027 59.216 20.184C59.728 20.3547 60.16 20.7653 60.512 21.416L62.464 25H60.64L58.688 21.4C58.464 20.984 58.2027 20.7067 57.904 20.568C57.616 20.4187 57.2427 20.344 56.784 20.344H54.976V25H53.312ZM54.976 19.096H57.712C59.3547 19.096 60.176 18.4187 60.176 17.064C60.176 15.72 59.3547 15.048 57.712 15.048H54.976V19.096ZM67.4406 25.144C66.1606 25.144 65.1526 24.7867 64.4166 24.072C63.6806 23.3467 63.3126 22.36 63.3126 21.112C63.3126 20.312 63.4726 19.608 63.7926 19C64.1233 18.3813 64.5766 17.9013 65.1526 17.56C65.7286 17.2187 66.39 17.048 67.1366 17.048C68.214 17.048 69.062 17.3947 69.6806 18.088C70.2993 18.7707 70.6086 19.7147 70.6086 20.92V21.464H64.8806C64.998 23.0853 65.8566 23.896 67.4566 23.896C67.9046 23.896 68.342 23.8267 68.7686 23.688C69.206 23.5493 69.6166 23.32 70.0006 23L70.4806 24.12C70.1286 24.44 69.6753 24.6907 69.1206 24.872C68.566 25.0533 68.006 25.144 67.4406 25.144ZM67.2006 18.184C66.5286 18.184 65.9953 18.392 65.6006 18.808C65.206 19.224 64.966 19.7787 64.8806 20.472H69.2486C69.2166 19.7467 69.0246 19.1867 68.6726 18.792C68.3206 18.3867 67.83 18.184 67.2006 18.184ZM75.6828 25.144C74.7014 25.144 73.9708 24.8933 73.4908 24.392C73.0108 23.8907 72.7708 23.1653 72.7708 22.216V18.44H71.2508V17.192H72.7708V14.84H74.3868V17.192H76.8028V18.44H74.3868V22.088C74.3868 22.6533 74.5041 23.08 74.7388 23.368C74.9841 23.656 75.3788 23.8 75.9227 23.8C76.0934 23.8 76.2588 23.784 76.4188 23.752C76.5788 23.7093 76.7388 23.6613 76.8988 23.608L77.1548 24.824C76.9948 24.92 76.7708 24.9947 76.4828 25.048C76.2054 25.112 75.9388 25.144 75.6828 25.144ZM80.9825 25.144C79.0945 25.144 78.1505 24.0933 78.1505 21.992V17.192H79.7665V22.008C79.7665 22.6373 79.8945 23.1013 80.1505 23.4C80.4065 23.6987 80.8118 23.848 81.3665 23.848C81.9745 23.848 82.4652 23.6453 82.8385 23.24C83.2225 22.8347 83.4145 22.2907 83.4145 21.608V17.192H85.0305V25H83.4625V23.752C83.2065 24.2107 82.8652 24.5573 82.4385 24.792C82.0118 25.0267 81.5265 25.144 80.9825 25.144ZM87.3079 25V17.192H88.8759V18.584C89.2812 17.656 90.1239 17.1387 91.4039 17.032L91.9319 17L92.0439 18.376L91.0679 18.472C89.6492 18.6107 88.9399 19.3413 88.9399 20.664V25H87.3079ZM93.2766 25V17.192H94.8446V18.488C95.1113 18.0187 95.474 17.6613 95.9326 17.416C96.402 17.1707 96.9246 17.048 97.5006 17.048C99.346 17.048 100.269 18.0933 100.269 20.184V25H98.6526V20.28C98.6526 19.608 98.5193 19.1173 98.2526 18.808C97.9966 18.4987 97.5913 18.344 97.0366 18.344C96.386 18.344 95.8633 18.552 95.4686 18.968C95.0846 19.3733 94.8926 19.912 94.8926 20.584V25H93.2766ZM110.251 25.144C109.088 25.144 108.176 24.8773 107.515 24.344C106.853 23.8107 106.523 23.1013 106.523 22.216C106.523 21.4907 106.72 20.8613 107.115 20.328C107.509 19.7947 108.085 19.2933 108.843 18.824L109.035 18.712C108.576 18.232 108.251 17.7947 108.059 17.4C107.877 16.9947 107.787 16.5787 107.787 16.152C107.787 15.384 108.053 14.7653 108.587 14.296C109.12 13.816 109.829 13.576 110.715 13.576C111.515 13.576 112.16 13.7893 112.651 14.216C113.141 14.6427 113.387 15.2187 113.387 15.944C113.387 16.4987 113.221 17.016 112.891 17.496C112.571 17.9653 112.011 18.4507 111.211 18.952L113.627 21.608C113.84 21.1707 114.011 20.6693 114.139 20.104C114.267 19.528 114.347 18.9307 114.378 18.312H115.739C115.717 19.1333 115.605 19.912 115.403 20.648C115.2 21.3733 114.928 22.0187 114.587 22.584L116.907 25H114.939L113.723 23.672C113.275 24.1413 112.752 24.504 112.155 24.76C111.557 25.016 110.923 25.144 110.251 25.144ZM110.715 14.76C110.288 14.76 109.941 14.888 109.674 15.144C109.419 15.3893 109.291 15.7147 109.291 16.12C109.291 16.4293 109.36 16.712 109.499 16.968C109.648 17.224 109.92 17.576 110.315 18.024C110.933 17.64 111.371 17.2987 111.627 17C111.883 16.7013 112.011 16.3707 112.011 16.008C112.011 15.6133 111.888 15.3093 111.643 15.096C111.408 14.872 111.099 14.76 110.715 14.76ZM110.331 23.848C111.333 23.848 112.16 23.48 112.811 22.744L109.915 19.656L109.819 19.72C109.2 20.1147 108.763 20.488 108.507 20.84C108.251 21.1813 108.123 21.5973 108.123 22.088C108.123 22.6427 108.309 23.0747 108.683 23.384C109.067 23.6933 109.616 23.848 110.331 23.848ZM122.406 25V13.72H129.702V15.064H124.006V18.6H129.366V19.944H124.006V23.656H129.702V25H122.406ZM130.612 25L133.86 20.968L130.82 17.192H132.708L134.804 19.864L136.9 17.192H138.788L135.732 20.984L138.996 25H137.076L134.788 22.12L132.516 25H130.612ZM143.451 25.144C142.651 25.144 141.958 24.9787 141.371 24.648C140.795 24.3067 140.347 23.832 140.027 23.224C139.707 22.6053 139.547 21.88 139.547 21.048C139.547 19.8107 139.899 18.8347 140.603 18.12C141.307 17.4053 142.256 17.048 143.451 17.048C143.942 17.048 144.427 17.1333 144.907 17.304C145.387 17.4747 145.782 17.7093 146.091 18.008L145.579 19.144C145.28 18.8667 144.95 18.664 144.587 18.536C144.235 18.3973 143.899 18.328 143.579 18.328C142.822 18.328 142.235 18.568 141.819 19.048C141.414 19.5173 141.211 20.1893 141.211 21.064C141.211 21.9387 141.414 22.6267 141.819 23.128C142.235 23.6187 142.822 23.864 143.579 23.864C143.899 23.864 144.235 23.8 144.587 23.672C144.95 23.5333 145.28 23.3253 145.579 23.048L146.091 24.2C145.782 24.488 145.382 24.7173 144.891 24.888C144.411 25.0587 143.931 25.144 143.451 25.144ZM147.48 25V13.72H149.096V18.408C149.362 17.96 149.72 17.624 150.168 17.4C150.626 17.1653 151.138 17.048 151.704 17.048C153.549 17.048 154.472 18.0933 154.472 20.184V25H152.856V20.28C152.856 19.608 152.722 19.1173 152.456 18.808C152.2 18.4987 151.794 18.344 151.24 18.344C150.589 18.344 150.066 18.552 149.672 18.968C149.288 19.3733 149.096 19.912 149.096 20.584V25H147.48ZM159.195 25.144C158.651 25.144 158.165 25.0373 157.739 24.824C157.312 24.6107 156.971 24.3227 156.715 23.96C156.469 23.5973 156.347 23.1867 156.347 22.728C156.347 22.152 156.491 21.6987 156.779 21.368C157.077 21.0373 157.563 20.7973 158.235 20.648C158.917 20.4987 159.835 20.424 160.987 20.424H161.531V20.008C161.531 19.4 161.403 18.9627 161.147 18.696C160.891 18.4293 160.469 18.296 159.883 18.296C159.435 18.296 158.987 18.3653 158.539 18.504C158.091 18.632 157.632 18.84 157.163 19.128L156.667 17.992C157.072 17.704 157.579 17.4747 158.187 17.304C158.795 17.1333 159.376 17.048 159.931 17.048C160.997 17.048 161.787 17.304 162.299 17.816C162.811 18.3173 163.067 19.1067 163.067 20.184V25H161.547V23.704C161.355 24.152 161.056 24.504 160.651 24.76C160.245 25.016 159.76 25.144 159.195 25.144ZM159.515 23.992C160.091 23.992 160.571 23.7893 160.955 23.384C161.339 22.9787 161.531 22.4667 161.531 21.848V21.416H161.003C160.224 21.416 159.611 21.4533 159.163 21.528C158.725 21.6027 158.411 21.7307 158.219 21.912C158.037 22.0827 157.947 22.3227 157.947 22.632C157.947 23.0373 158.085 23.368 158.363 23.624C158.64 23.8693 159.024 23.992 159.515 23.992ZM165.292 25V17.192H166.86V18.488C167.127 18.0187 167.49 17.6613 167.948 17.416C168.418 17.1707 168.94 17.048 169.516 17.048C171.362 17.048 172.284 18.0933 172.284 20.184V25H170.668V20.28C170.668 19.608 170.535 19.1173 170.268 18.808C170.012 18.4987 169.607 18.344 169.052 18.344C168.402 18.344 167.879 18.552 167.484 18.968C167.1 19.3733 166.908 19.912 166.908 20.584V25H165.292ZM178.047 28.024C177.343 28.024 176.687 27.9387 176.079 27.768C175.471 27.608 174.932 27.352 174.463 27L174.959 25.848C175.428 26.168 175.908 26.4027 176.399 26.552C176.89 26.7013 177.402 26.776 177.935 26.776C179.428 26.776 180.175 26.0293 180.175 24.536V23.304C179.951 23.7733 179.599 24.1413 179.119 24.408C178.65 24.6747 178.122 24.808 177.535 24.808C176.831 24.808 176.218 24.648 175.695 24.328C175.172 23.9973 174.767 23.544 174.479 22.968C174.191 22.3813 174.047 21.6987 174.047 20.92C174.047 20.152 174.191 19.48 174.479 18.904C174.767 18.3173 175.172 17.864 175.695 17.544C176.218 17.2133 176.831 17.048 177.535 17.048C178.132 17.048 178.666 17.1813 179.135 17.448C179.604 17.7147 179.951 18.0827 180.175 18.552V17.192H181.743V24.344C181.743 25.5707 181.428 26.488 180.799 27.096C180.17 27.7147 179.252 28.024 178.047 28.024ZM177.919 23.544C178.602 23.544 179.146 23.3093 179.551 22.84C179.956 22.3707 180.159 21.7307 180.159 20.92C180.159 20.1093 179.956 19.4747 179.551 19.016C179.146 18.5467 178.602 18.312 177.919 18.312C177.236 18.312 176.692 18.5467 176.287 19.016C175.882 19.4747 175.679 20.1093 175.679 20.92C175.679 21.7307 175.882 22.3707 176.287 22.84C176.692 23.3093 177.236 23.544 177.919 23.544ZM187.675 25.144C186.395 25.144 185.387 24.7867 184.651 24.072C183.915 23.3467 183.547 22.36 183.547 21.112C183.547 20.312 183.707 19.608 184.027 19C184.358 18.3813 184.811 17.9013 185.387 17.56C185.963 17.2187 186.624 17.048 187.371 17.048C188.448 17.048 189.296 17.3947 189.915 18.088C190.534 18.7707 190.843 19.7147 190.843 20.92V21.464H185.115C185.232 23.0853 186.091 23.896 187.691 23.896C188.139 23.896 188.576 23.8267 189.003 23.688C189.44 23.5493 189.851 23.32 190.235 23L190.715 24.12C190.363 24.44 189.91 24.6907 189.355 24.872C188.8 25.0533 188.24 25.144 187.675 25.144ZM187.435 18.184C186.763 18.184 186.23 18.392 185.835 18.808C185.44 19.224 185.2 19.7787 185.115 20.472H189.483C189.451 19.7467 189.259 19.1867 188.907 18.792C188.555 18.3867 188.064 18.184 187.435 18.184ZM196.984 25V13.72H201.656C202.872 13.72 203.811 14.024 204.472 14.632C205.133 15.2293 205.464 16.072 205.464 17.16C205.464 18.2587 205.133 19.112 204.472 19.72C203.811 20.3173 202.872 20.616 201.656 20.616H198.648V25H196.984ZM198.648 19.288H201.416C203.037 19.288 203.848 18.5787 203.848 17.16C203.848 15.752 203.037 15.048 201.416 15.048H198.648V19.288ZM210.075 25.144C209.286 25.144 208.603 24.9787 208.027 24.648C207.451 24.3173 207.003 23.8533 206.683 23.256C206.374 22.648 206.219 21.928 206.219 21.096C206.219 20.264 206.374 19.5493 206.683 18.952C207.003 18.344 207.451 17.8747 208.027 17.544C208.603 17.2133 209.286 17.048 210.075 17.048C210.843 17.048 211.515 17.2133 212.091 17.544C212.667 17.8747 213.115 18.344 213.435 18.952C213.755 19.5493 213.915 20.264 213.915 21.096C213.915 21.928 213.755 22.648 213.435 23.256C213.115 23.8533 212.667 24.3173 212.091 24.648C211.515 24.9787 210.843 25.144 210.075 25.144ZM210.075 23.896C210.736 23.896 211.27 23.656 211.675 23.176C212.08 22.696 212.283 22.0027 212.283 21.096C212.283 20.1893 212.08 19.5013 211.675 19.032C211.27 18.552 210.736 18.312 210.075 18.312C209.403 18.312 208.864 18.552 208.459 19.032C208.054 19.5013 207.851 20.1893 207.851 21.096C207.851 22.0027 208.054 22.696 208.459 23.176C208.864 23.656 209.403 23.896 210.075 23.896ZM218.274 25.144C217.42 25.144 216.78 24.904 216.354 24.424C215.938 23.944 215.73 23.24 215.73 22.312V13.72H217.346V22.216C217.346 23.272 217.778 23.8 218.642 23.8C218.77 23.8 218.887 23.7947 218.994 23.784C219.111 23.7733 219.228 23.752 219.346 23.72L219.314 25.016C218.951 25.1013 218.604 25.144 218.274 25.144ZM220.476 15.384V13.704H222.364V15.384H220.476ZM220.62 25V17.192H222.236V25H220.62ZM227.951 25.144C227.151 25.144 226.458 24.9787 225.871 24.648C225.295 24.3067 224.847 23.832 224.527 23.224C224.207 22.6053 224.047 21.88 224.047 21.048C224.047 19.8107 224.399 18.8347 225.103 18.12C225.807 17.4053 226.756 17.048 227.951 17.048C228.442 17.048 228.927 17.1333 229.407 17.304C229.887 17.4747 230.282 17.7093 230.591 18.008L230.079 19.144C229.78 18.8667 229.45 18.664 229.087 18.536C228.735 18.3973 228.399 18.328 228.079 18.328C227.322 18.328 226.735 18.568 226.319 19.048C225.914 19.5173 225.711 20.1893 225.711 21.064C225.711 21.9387 225.914 22.6267 226.319 23.128C226.735 23.6187 227.322 23.864 228.079 23.864C228.399 23.864 228.735 23.8 229.087 23.672C229.45 23.5333 229.78 23.3253 230.079 23.048L230.591 24.2C230.282 24.488 229.882 24.7173 229.391 24.888C228.911 25.0587 228.431 25.144 227.951 25.144ZM232.874 27.88L234.266 24.792L231.002 17.192H232.73L235.13 23.128L237.562 17.192H239.226L234.57 27.88H232.874Z" fill="#3F3E43"/>
</svg>
