<svg width="224" height="40" viewBox="0 0 224 40" fill="none" xmlns="http://www.w3.org/2000/svg">
<rect width="224" height="40" rx="20" fill="white" fill-opacity="0.75"/>
<circle cx="20" cy="20" r="12" fill="#384ECE"/>
<path d="M14.5 19.5L19 24L26 17" stroke="white" stroke-width="2"/>
<path d="M57.072 25.144C56.1867 25.144 55.376 25.032 54.64 24.808C53.904 24.5733 53.28 24.248 52.768 23.832L53.296 22.52C53.8293 22.9253 54.4 23.2293 55.008 23.432C55.616 23.6347 56.304 23.736 57.072 23.736C57.9787 23.736 58.6453 23.576 59.072 23.256C59.5093 22.9253 59.728 22.4987 59.728 21.976C59.728 21.5493 59.5733 21.2133 59.264 20.968C58.9547 20.712 58.4373 20.5093 57.712 20.36L56 20.008C54.9867 19.7947 54.2293 19.4427 53.728 18.952C53.2373 18.4613 52.992 17.8 52.992 16.968C52.992 16.296 53.168 15.704 53.52 15.192C53.8827 14.68 54.384 14.2853 55.024 14.008C55.664 13.72 56.4 13.576 57.232 13.576C58 13.576 58.7093 13.6933 59.36 13.928C60.0213 14.152 60.5813 14.4827 61.04 14.92L60.496 16.184C59.5893 15.384 58.496 14.984 57.216 14.984C56.4267 14.984 55.7973 15.16 55.328 15.512C54.8693 15.864 54.64 16.3333 54.64 16.92C54.64 17.368 54.784 17.7253 55.072 17.992C55.36 18.2587 55.84 18.4613 56.512 18.6L58.208 18.952C59.2747 19.176 60.0693 19.5227 60.592 19.992C61.1147 20.4507 61.376 21.0747 61.376 21.864C61.376 22.5253 61.2 23.1013 60.848 23.592C60.496 24.0827 60 24.4667 59.36 24.744C58.72 25.0107 57.9573 25.144 57.072 25.144ZM66.7531 25.144C65.4731 25.144 64.4651 24.7867 63.7291 24.072C62.9931 23.3467 62.6251 22.36 62.6251 21.112C62.6251 20.312 62.7851 19.608 63.1051 19C63.4358 18.3813 63.8891 17.9013 64.4651 17.56C65.0411 17.2187 65.7025 17.048 66.4491 17.048C67.5265 17.048 68.3745 17.3947 68.9931 18.088C69.6118 18.7707 69.9211 19.7147 69.9211 20.92V21.464H64.1931C64.3105 23.0853 65.1691 23.896 66.7691 23.896C67.2171 23.896 67.6545 23.8267 68.0811 23.688C68.5185 23.5493 68.9291 23.32 69.3131 23L69.7931 24.12C69.4411 24.44 68.9878 24.6907 68.4331 24.872C67.8785 25.0533 67.3185 25.144 66.7531 25.144ZM66.5131 18.184C65.8411 18.184 65.3078 18.392 64.9131 18.808C64.5185 19.224 64.2785 19.7787 64.1931 20.472H68.5611C68.5291 19.7467 68.3371 19.1867 67.9851 18.792C67.6331 18.3867 67.1425 18.184 66.5131 18.184ZM75.1229 25.144C74.3229 25.144 73.6295 24.9787 73.0429 24.648C72.4669 24.3067 72.0189 23.832 71.6989 23.224C71.3789 22.6053 71.2189 21.88 71.2189 21.048C71.2189 19.8107 71.5709 18.8347 72.2749 18.12C72.9789 17.4053 73.9282 17.048 75.1229 17.048C75.6135 17.048 76.0989 17.1333 76.5789 17.304C77.0589 17.4747 77.4535 17.7093 77.7629 18.008L77.2509 19.144C76.9522 18.8667 76.6215 18.664 76.2589 18.536C75.9069 18.3973 75.5709 18.328 75.2509 18.328C74.4935 18.328 73.9069 18.568 73.4909 19.048C73.0855 19.5173 72.8829 20.1893 72.8829 21.064C72.8829 21.9387 73.0855 22.6267 73.4909 23.128C73.9069 23.6187 74.4935 23.864 75.2509 23.864C75.5709 23.864 75.9069 23.8 76.2589 23.672C76.6215 23.5333 76.9522 23.3253 77.2509 23.048L77.7629 24.2C77.4535 24.488 77.0535 24.7173 76.5629 24.888C76.0829 25.0587 75.6029 25.144 75.1229 25.144ZM81.9356 25.144C80.0476 25.144 79.1036 24.0933 79.1036 21.992V17.192H80.7196V22.008C80.7196 22.6373 80.8476 23.1013 81.1036 23.4C81.3596 23.6987 81.765 23.848 82.3196 23.848C82.9276 23.848 83.4183 23.6453 83.7916 23.24C84.1756 22.8347 84.3676 22.2907 84.3676 21.608V17.192H85.9836V25H84.4156V23.752C84.1596 24.2107 83.8183 24.5573 83.3916 24.792C82.965 25.0267 82.4796 25.144 81.9356 25.144ZM88.261 25V17.192H89.829V18.584C90.2343 17.656 91.077 17.1387 92.357 17.032L92.885 17L92.997 18.376L92.021 18.472C90.6023 18.6107 89.893 19.3413 89.893 20.664V25H88.261ZM97.7844 25.144C96.5044 25.144 95.4964 24.7867 94.7604 24.072C94.0244 23.3467 93.6564 22.36 93.6564 21.112C93.6564 20.312 93.8164 19.608 94.1364 19C94.467 18.3813 94.9204 17.9013 95.4964 17.56C96.0724 17.2187 96.7337 17.048 97.4804 17.048C98.5577 17.048 99.4057 17.3947 100.024 18.088C100.643 18.7707 100.952 19.7147 100.952 20.92V21.464H95.2244C95.3417 23.0853 96.2004 23.896 97.8004 23.896C98.2484 23.896 98.6857 23.8267 99.1124 23.688C99.5497 23.5493 99.9604 23.32 100.344 23L100.824 24.12C100.472 24.44 100.019 24.6907 99.4644 24.872C98.9097 25.0533 98.3497 25.144 97.7844 25.144ZM97.5444 18.184C96.8724 18.184 96.339 18.392 95.9444 18.808C95.5497 19.224 95.3097 19.7787 95.2244 20.472H99.5924C99.5604 19.7467 99.3684 19.1867 99.0164 18.792C98.6644 18.3867 98.1737 18.184 97.5444 18.184ZM109.845 25V15.112H105.845V13.72H115.493V15.112H111.493V25H109.845ZM115.464 25V17.192H117.032V18.584C117.437 17.656 118.28 17.1387 119.56 17.032L120.088 17L120.2 18.376L119.224 18.472C117.805 18.6107 117.096 19.3413 117.096 20.664V25H115.464ZM123.851 25.144C123.307 25.144 122.821 25.0373 122.395 24.824C121.968 24.6107 121.627 24.3227 121.371 23.96C121.125 23.5973 121.003 23.1867 121.003 22.728C121.003 22.152 121.147 21.6987 121.435 21.368C121.733 21.0373 122.219 20.7973 122.891 20.648C123.573 20.4987 124.491 20.424 125.643 20.424H126.187V20.008C126.187 19.4 126.059 18.9627 125.803 18.696C125.547 18.4293 125.125 18.296 124.539 18.296C124.091 18.296 123.643 18.3653 123.195 18.504C122.747 18.632 122.288 18.84 121.819 19.128L121.323 17.992C121.728 17.704 122.235 17.4747 122.843 17.304C123.451 17.1333 124.032 17.048 124.587 17.048C125.653 17.048 126.443 17.304 126.955 17.816C127.467 18.3173 127.723 19.1067 127.723 20.184V25H126.203V23.704C126.011 24.152 125.712 24.504 125.307 24.76C124.901 25.016 124.416 25.144 123.851 25.144ZM124.171 23.992C124.747 23.992 125.227 23.7893 125.611 23.384C125.995 22.9787 126.187 22.4667 126.187 21.848V21.416H125.659C124.88 21.416 124.267 21.4533 123.819 21.528C123.381 21.6027 123.067 21.7307 122.875 21.912C122.693 22.0827 122.603 22.3227 122.603 22.632C122.603 23.0373 122.741 23.368 123.019 23.624C123.296 23.8693 123.68 23.992 124.171 23.992ZM129.949 25V17.192H131.517V18.488C131.783 18.0187 132.146 17.6613 132.605 17.416C133.074 17.1707 133.597 17.048 134.173 17.048C136.018 17.048 136.941 18.0933 136.941 20.184V25H135.325V20.28C135.325 19.608 135.191 19.1173 134.925 18.808C134.669 18.4987 134.263 18.344 133.709 18.344C133.058 18.344 132.535 18.552 132.141 18.968C131.757 19.3733 131.565 19.912 131.565 20.584V25H129.949ZM141.903 25.144C141.263 25.144 140.666 25.064 140.111 24.904C139.557 24.7333 139.093 24.4987 138.719 24.2L139.183 23.112C139.578 23.3893 140.01 23.6027 140.479 23.752C140.959 23.9013 141.439 23.976 141.919 23.976C142.485 23.976 142.911 23.8747 143.199 23.672C143.487 23.4693 143.631 23.1973 143.631 22.856C143.631 22.5787 143.535 22.3653 143.343 22.216C143.151 22.056 142.863 21.9333 142.479 21.848L140.959 21.544C139.615 21.2667 138.943 20.5733 138.943 19.464C138.943 18.728 139.237 18.1413 139.823 17.704C140.41 17.2667 141.178 17.048 142.127 17.048C142.671 17.048 143.189 17.128 143.679 17.288C144.181 17.448 144.597 17.688 144.927 18.008L144.463 19.096C144.143 18.8187 143.775 18.6053 143.359 18.456C142.943 18.3067 142.533 18.232 142.127 18.232C141.573 18.232 141.151 18.3387 140.863 18.552C140.575 18.7547 140.431 19.032 140.431 19.384C140.431 19.9173 140.783 20.2587 141.487 20.408L143.007 20.712C143.701 20.8507 144.223 21.0853 144.575 21.416C144.938 21.7467 145.119 22.1947 145.119 22.76C145.119 23.5067 144.826 24.0933 144.239 24.52C143.653 24.936 142.874 25.144 141.903 25.144ZM149.413 25.144C148.869 25.144 148.384 25.0373 147.957 24.824C147.531 24.6107 147.189 24.3227 146.933 23.96C146.688 23.5973 146.565 23.1867 146.565 22.728C146.565 22.152 146.709 21.6987 146.997 21.368C147.296 21.0373 147.781 20.7973 148.453 20.648C149.136 20.4987 150.053 20.424 151.205 20.424H151.749V20.008C151.749 19.4 151.621 18.9627 151.365 18.696C151.109 18.4293 150.688 18.296 150.101 18.296C149.653 18.296 149.205 18.3653 148.757 18.504C148.309 18.632 147.851 18.84 147.381 19.128L146.885 17.992C147.291 17.704 147.797 17.4747 148.405 17.304C149.013 17.1333 149.595 17.048 150.149 17.048C151.216 17.048 152.005 17.304 152.517 17.816C153.029 18.3173 153.285 19.1067 153.285 20.184V25H151.765V23.704C151.573 24.152 151.275 24.504 150.869 24.76C150.464 25.016 149.979 25.144 149.413 25.144ZM149.733 23.992C150.309 23.992 150.789 23.7893 151.173 23.384C151.557 22.9787 151.749 22.4667 151.749 21.848V21.416H151.221C150.443 21.416 149.829 21.4533 149.381 21.528C148.944 21.6027 148.629 21.7307 148.437 21.912C148.256 22.0827 148.165 22.3227 148.165 22.632C148.165 23.0373 148.304 23.368 148.581 23.624C148.859 23.8693 149.243 23.992 149.733 23.992ZM158.951 25.144C158.151 25.144 157.458 24.9787 156.871 24.648C156.295 24.3067 155.847 23.832 155.527 23.224C155.207 22.6053 155.047 21.88 155.047 21.048C155.047 19.8107 155.399 18.8347 156.103 18.12C156.807 17.4053 157.756 17.048 158.951 17.048C159.442 17.048 159.927 17.1333 160.407 17.304C160.887 17.4747 161.282 17.7093 161.591 18.008L161.079 19.144C160.78 18.8667 160.45 18.664 160.087 18.536C159.735 18.3973 159.399 18.328 159.079 18.328C158.322 18.328 157.735 18.568 157.319 19.048C156.914 19.5173 156.711 20.1893 156.711 21.064C156.711 21.9387 156.914 22.6267 157.319 23.128C157.735 23.6187 158.322 23.864 159.079 23.864C159.399 23.864 159.735 23.8 160.087 23.672C160.45 23.5333 160.78 23.3253 161.079 23.048L161.591 24.2C161.282 24.488 160.882 24.7173 160.391 24.888C159.911 25.0587 159.431 25.144 158.951 25.144ZM166.323 25.144C165.342 25.144 164.611 24.8933 164.131 24.392C163.651 23.8907 163.411 23.1653 163.411 22.216V18.44H161.891V17.192H163.411V14.84H165.027V17.192H167.443V18.44H165.027V22.088C165.027 22.6533 165.145 23.08 165.379 23.368C165.625 23.656 166.019 23.8 166.563 23.8C166.734 23.8 166.899 23.784 167.059 23.752C167.219 23.7093 167.379 23.6613 167.539 23.608L167.795 24.824C167.635 24.92 167.411 24.9947 167.123 25.048C166.846 25.112 166.579 25.144 166.323 25.144ZM168.695 15.384V13.704H170.583V15.384H168.695ZM168.839 25V17.192H170.455V25H168.839ZM176.122 25.144C175.332 25.144 174.65 24.9787 174.074 24.648C173.498 24.3173 173.05 23.8533 172.73 23.256C172.42 22.648 172.266 21.928 172.266 21.096C172.266 20.264 172.42 19.5493 172.73 18.952C173.05 18.344 173.498 17.8747 174.074 17.544C174.65 17.2133 175.332 17.048 176.122 17.048C176.89 17.048 177.562 17.2133 178.138 17.544C178.714 17.8747 179.162 18.344 179.482 18.952C179.802 19.5493 179.962 20.264 179.962 21.096C179.962 21.928 179.802 22.648 179.482 23.256C179.162 23.8533 178.714 24.3173 178.138 24.648C177.562 24.9787 176.89 25.144 176.122 25.144ZM176.122 23.896C176.783 23.896 177.316 23.656 177.722 23.176C178.127 22.696 178.33 22.0027 178.33 21.096C178.33 20.1893 178.127 19.5013 177.722 19.032C177.316 18.552 176.783 18.312 176.122 18.312C175.45 18.312 174.911 18.552 174.506 19.032C174.1 19.5013 173.898 20.1893 173.898 21.096C173.898 22.0027 174.1 22.696 174.506 23.176C174.911 23.656 175.45 23.896 176.122 23.896ZM181.777 25V17.192H183.345V18.488C183.611 18.0187 183.974 17.6613 184.433 17.416C184.902 17.1707 185.425 17.048 186.001 17.048C187.846 17.048 188.769 18.0933 188.769 20.184V25H187.153V20.28C187.153 19.608 187.019 19.1173 186.753 18.808C186.497 18.4987 186.091 18.344 185.537 18.344C184.886 18.344 184.363 18.552 183.969 18.968C183.585 19.3733 183.393 19.912 183.393 20.584V25H181.777ZM193.731 25.144C193.091 25.144 192.494 25.064 191.939 24.904C191.385 24.7333 190.921 24.4987 190.547 24.2L191.011 23.112C191.406 23.3893 191.838 23.6027 192.307 23.752C192.787 23.9013 193.267 23.976 193.747 23.976C194.313 23.976 194.739 23.8747 195.027 23.672C195.315 23.4693 195.459 23.1973 195.459 22.856C195.459 22.5787 195.363 22.3653 195.171 22.216C194.979 22.056 194.691 21.9333 194.307 21.848L192.787 21.544C191.443 21.2667 190.771 20.5733 190.771 19.464C190.771 18.728 191.065 18.1413 191.651 17.704C192.238 17.2667 193.006 17.048 193.955 17.048C194.499 17.048 195.017 17.128 195.507 17.288C196.009 17.448 196.425 17.688 196.755 18.008L196.291 19.096C195.971 18.8187 195.603 18.6053 195.187 18.456C194.771 18.3067 194.361 18.232 193.955 18.232C193.401 18.232 192.979 18.3387 192.691 18.552C192.403 18.7547 192.259 19.032 192.259 19.384C192.259 19.9173 192.611 20.2587 193.315 20.408L194.835 20.712C195.529 20.8507 196.051 21.0853 196.403 21.416C196.766 21.7467 196.947 22.1947 196.947 22.76C196.947 23.5067 196.654 24.0933 196.067 24.52C195.481 24.936 194.702 25.144 193.731 25.144Z" fill="#3F3E43"/>
</svg>
