<svg width="206" height="40" viewBox="0 0 206 40" fill="none" xmlns="http://www.w3.org/2000/svg">
<rect width="206" height="40" rx="20" fill="white" fill-opacity="0.75"/>
<circle cx="20" cy="20" r="12" fill="#384ECE"/>
<path d="M14.5 19.5L19 24L26 17" stroke="white" stroke-width="2"/>
<path d="M53.312 25V13.72H57.296C59.152 13.72 60.5813 14.2053 61.584 15.176C62.5973 16.1467 63.104 17.5387 63.104 19.352C63.104 21.1653 62.5973 22.5627 61.584 23.544C60.5813 24.5147 59.152 25 57.296 25H53.312ZM54.976 23.608H57.2C59.984 23.608 61.376 22.1893 61.376 19.352C61.376 16.5253 59.984 15.112 57.2 15.112H54.976V23.608ZM65.0076 15.384V13.704H66.8956V15.384H65.0076ZM65.1516 25V17.192H66.7676V25H65.1516ZM71.7783 25.144C71.1383 25.144 70.5409 25.064 69.9863 24.904C69.4316 24.7333 68.9676 24.4987 68.5943 24.2L69.0583 23.112C69.4529 23.3893 69.8849 23.6027 70.3543 23.752C70.8343 23.9013 71.3143 23.976 71.7943 23.976C72.3596 23.976 72.7863 23.8747 73.0743 23.672C73.3623 23.4693 73.5063 23.1973 73.5063 22.856C73.5063 22.5787 73.4103 22.3653 73.2183 22.216C73.0263 22.056 72.7383 21.9333 72.3543 21.848L70.8343 21.544C69.4903 21.2667 68.8183 20.5733 68.8183 19.464C68.8183 18.728 69.1116 18.1413 69.6983 17.704C70.2849 17.2667 71.0529 17.048 72.0023 17.048C72.5463 17.048 73.0636 17.128 73.5543 17.288C74.0556 17.448 74.4716 17.688 74.8023 18.008L74.3383 19.096C74.0183 18.8187 73.6503 18.6053 73.2343 18.456C72.8183 18.3067 72.4076 18.232 72.0023 18.232C71.4476 18.232 71.0263 18.3387 70.7383 18.552C70.4503 18.7547 70.3063 19.032 70.3063 19.384C70.3063 19.9173 70.6583 20.2587 71.3623 20.408L72.8823 20.712C73.5756 20.8507 74.0983 21.0853 74.4503 21.416C74.8129 21.7467 74.9943 22.1947 74.9943 22.76C74.9943 23.5067 74.7009 24.0933 74.1143 24.52C73.5276 24.936 72.7489 25.144 71.7783 25.144ZM80.2323 25.144C79.4323 25.144 78.7389 24.9787 78.1523 24.648C77.5763 24.3067 77.1283 23.832 76.8083 23.224C76.4883 22.6053 76.3283 21.88 76.3283 21.048C76.3283 19.8107 76.6803 18.8347 77.3843 18.12C78.0883 17.4053 79.0376 17.048 80.2323 17.048C80.7229 17.048 81.2083 17.1333 81.6883 17.304C82.1683 17.4747 82.5629 17.7093 82.8723 18.008L82.3603 19.144C82.0616 18.8667 81.7309 18.664 81.3683 18.536C81.0163 18.3973 80.6803 18.328 80.3602 18.328C79.6029 18.328 79.0163 18.568 78.6003 19.048C78.1949 19.5173 77.9923 20.1893 77.9923 21.064C77.9923 21.9387 78.1949 22.6267 78.6003 23.128C79.0163 23.6187 79.6029 23.864 80.3602 23.864C80.6803 23.864 81.0163 23.8 81.3683 23.672C81.7309 23.5333 82.0616 23.3253 82.3603 23.048L82.8723 24.2C82.5629 24.488 82.1629 24.7173 81.6723 24.888C81.1923 25.0587 80.7123 25.144 80.2323 25.144ZM87.4968 25.144C86.7074 25.144 86.0248 24.9787 85.4488 24.648C84.8728 24.3173 84.4248 23.8533 84.1048 23.256C83.7954 22.648 83.6408 21.928 83.6408 21.096C83.6408 20.264 83.7954 19.5493 84.1048 18.952C84.4248 18.344 84.8728 17.8747 85.4488 17.544C86.0248 17.2133 86.7074 17.048 87.4968 17.048C88.2648 17.048 88.9368 17.2133 89.5128 17.544C90.0888 17.8747 90.5368 18.344 90.8568 18.952C91.1768 19.5493 91.3368 20.264 91.3368 21.096C91.3368 21.928 91.1768 22.648 90.8568 23.256C90.5368 23.8533 90.0888 24.3173 89.5128 24.648C88.9368 24.9787 88.2648 25.144 87.4968 25.144ZM87.4968 23.896C88.1581 23.896 88.6914 23.656 89.0968 23.176C89.5021 22.696 89.7048 22.0027 89.7048 21.096C89.7048 20.1893 89.5021 19.5013 89.0968 19.032C88.6914 18.552 88.1581 18.312 87.4968 18.312C86.8248 18.312 86.2861 18.552 85.8808 19.032C85.4754 19.5013 85.2728 20.1893 85.2728 21.096C85.2728 22.0027 85.4754 22.696 85.8808 23.176C86.2861 23.656 86.8248 23.896 87.4968 23.896ZM95.9356 25.144C94.0476 25.144 93.1036 24.0933 93.1036 21.992V17.192H94.7196V22.008C94.7196 22.6373 94.8476 23.1013 95.1036 23.4C95.3596 23.6987 95.765 23.848 96.3196 23.848C96.9276 23.848 97.4183 23.6453 97.7916 23.24C98.1756 22.8347 98.3676 22.2907 98.3676 21.608V17.192H99.9836V25H98.4156V23.752C98.1596 24.2107 97.8183 24.5573 97.3916 24.792C96.965 25.0267 96.4796 25.144 95.9356 25.144ZM102.261 25V17.192H103.829V18.488C104.096 18.0187 104.458 17.6613 104.917 17.416C105.386 17.1707 105.909 17.048 106.485 17.048C108.33 17.048 109.253 18.0933 109.253 20.184V25H107.637V20.28C107.637 19.608 107.504 19.1173 107.237 18.808C106.981 18.4987 106.576 18.344 106.021 18.344C105.37 18.344 104.848 18.552 104.453 18.968C104.069 19.3733 103.877 19.912 103.877 20.584V25H102.261ZM114.808 25.144C113.826 25.144 113.096 24.8933 112.616 24.392C112.136 23.8907 111.896 23.1653 111.896 22.216V18.44H110.376V17.192H111.896V14.84H113.512V17.192H115.928V18.44H113.512V22.088C113.512 22.6533 113.629 23.08 113.864 23.368C114.109 23.656 114.504 23.8 115.048 23.8C115.218 23.8 115.384 23.784 115.544 23.752C115.704 23.7093 115.864 23.6613 116.024 23.608L116.28 24.824C116.12 24.92 115.896 24.9947 115.608 25.048C115.33 25.112 115.064 25.144 114.808 25.144ZM120.909 25.144C119.629 25.144 118.621 24.7867 117.885 24.072C117.149 23.3467 116.781 22.36 116.781 21.112C116.781 20.312 116.941 19.608 117.261 19C117.592 18.3813 118.045 17.9013 118.621 17.56C119.197 17.2187 119.859 17.048 120.605 17.048C121.683 17.048 122.531 17.3947 123.149 18.088C123.768 18.7707 124.077 19.7147 124.077 20.92V21.464H118.349C118.467 23.0853 119.325 23.896 120.925 23.896C121.373 23.896 121.811 23.8267 122.237 23.688C122.675 23.5493 123.085 23.32 123.469 23L123.949 24.12C123.597 24.44 123.144 24.6907 122.589 24.872C122.035 25.0533 121.475 25.144 120.909 25.144ZM120.669 18.184C119.997 18.184 119.464 18.392 119.069 18.808C118.675 19.224 118.435 19.7787 118.349 20.472H122.717C122.685 19.7467 122.493 19.1867 122.141 18.792C121.789 18.3867 121.299 18.184 120.669 18.184ZM128.815 25.144C128.132 25.144 127.53 24.984 127.007 24.664C126.495 24.3333 126.095 23.864 125.807 23.256C125.519 22.648 125.375 21.928 125.375 21.096C125.375 20.264 125.519 19.5493 125.807 18.952C126.095 18.344 126.495 17.8747 127.007 17.544C127.519 17.2133 128.122 17.048 128.815 17.048C129.402 17.048 129.924 17.176 130.383 17.432C130.842 17.688 131.183 18.0347 131.407 18.472V13.72H133.023V25H131.439V23.64C131.215 24.1093 130.868 24.4773 130.399 24.744C129.94 25.0107 129.412 25.144 128.815 25.144ZM129.231 23.896C129.892 23.896 130.426 23.656 130.831 23.176C131.236 22.696 131.439 22.0027 131.439 21.096C131.439 20.1893 131.236 19.5013 130.831 19.032C130.426 18.552 129.892 18.312 129.231 18.312C128.559 18.312 128.02 18.552 127.615 19.032C127.21 19.5013 127.007 20.1893 127.007 21.096C127.007 22.0027 127.21 22.696 127.615 23.176C128.02 23.656 128.559 23.896 129.231 23.896ZM139.671 25V13.72H144.343C145.559 13.72 146.498 14.0133 147.159 14.6C147.821 15.176 148.151 15.9867 148.151 17.032C148.151 17.8747 147.927 18.568 147.479 19.112C147.031 19.6453 146.397 20.0027 145.575 20.184C146.087 20.3547 146.519 20.7653 146.871 21.416L148.823 25H146.999L145.047 21.4C144.823 20.984 144.562 20.7067 144.263 20.568C143.975 20.4187 143.602 20.344 143.143 20.344H141.335V25H139.671ZM141.335 19.096H144.071C145.714 19.096 146.535 18.4187 146.535 17.064C146.535 15.72 145.714 15.048 144.071 15.048H141.335V19.096ZM152.773 25.144C152.229 25.144 151.743 25.0373 151.317 24.824C150.89 24.6107 150.549 24.3227 150.293 23.96C150.047 23.5973 149.925 23.1867 149.925 22.728C149.925 22.152 150.069 21.6987 150.357 21.368C150.655 21.0373 151.141 20.7973 151.813 20.648C152.495 20.4987 153.413 20.424 154.565 20.424H155.109V20.008C155.109 19.4 154.981 18.9627 154.725 18.696C154.469 18.4293 154.047 18.296 153.461 18.296C153.013 18.296 152.565 18.3653 152.117 18.504C151.669 18.632 151.21 18.84 150.741 19.128L150.245 17.992C150.65 17.704 151.157 17.4747 151.765 17.304C152.373 17.1333 152.954 17.048 153.509 17.048C154.575 17.048 155.365 17.304 155.877 17.816C156.389 18.3173 156.645 19.1067 156.645 20.184V25H155.125V23.704C154.933 24.152 154.634 24.504 154.229 24.76C153.823 25.016 153.338 25.144 152.773 25.144ZM153.093 23.992C153.669 23.992 154.149 23.7893 154.533 23.384C154.917 22.9787 155.109 22.4667 155.109 21.848V21.416H154.581C153.802 21.416 153.189 21.4533 152.741 21.528C152.303 21.6027 151.989 21.7307 151.797 21.912C151.615 22.0827 151.525 22.3227 151.525 22.632C151.525 23.0373 151.663 23.368 151.941 23.624C152.218 23.8693 152.602 23.992 153.093 23.992ZM162.198 25.144C161.217 25.144 160.486 24.8933 160.006 24.392C159.526 23.8907 159.286 23.1653 159.286 22.216V18.44H157.766V17.192H159.286V14.84H160.902V17.192H163.318V18.44H160.902V22.088C160.902 22.6533 161.02 23.08 161.254 23.368C161.5 23.656 161.894 23.8 162.438 23.8C162.609 23.8 162.774 23.784 162.934 23.752C163.094 23.7093 163.254 23.6613 163.414 23.608L163.67 24.824C163.51 24.92 163.286 24.9947 162.998 25.048C162.721 25.112 162.454 25.144 162.198 25.144ZM168.3 25.144C167.02 25.144 166.012 24.7867 165.276 24.072C164.54 23.3467 164.172 22.36 164.172 21.112C164.172 20.312 164.332 19.608 164.652 19C164.983 18.3813 165.436 17.9013 166.012 17.56C166.588 17.2187 167.249 17.048 167.996 17.048C169.073 17.048 169.921 17.3947 170.54 18.088C171.159 18.7707 171.468 19.7147 171.468 20.92V21.464H165.74C165.857 23.0853 166.716 23.896 168.316 23.896C168.764 23.896 169.201 23.8267 169.628 23.688C170.065 23.5493 170.476 23.32 170.86 23L171.34 24.12C170.988 24.44 170.535 24.6907 169.98 24.872C169.425 25.0533 168.865 25.144 168.3 25.144ZM168.06 18.184C167.388 18.184 166.855 18.392 166.46 18.808C166.065 19.224 165.825 19.7787 165.74 20.472H170.108C170.076 19.7467 169.884 19.1867 169.532 18.792C169.18 18.3867 168.689 18.184 168.06 18.184ZM175.966 25.144C175.326 25.144 174.728 25.064 174.174 24.904C173.619 24.7333 173.155 24.4987 172.782 24.2L173.246 23.112C173.64 23.3893 174.072 23.6027 174.542 23.752C175.022 23.9013 175.502 23.976 175.982 23.976C176.547 23.976 176.974 23.8747 177.262 23.672C177.55 23.4693 177.694 23.1973 177.694 22.856C177.694 22.5787 177.598 22.3653 177.406 22.216C177.214 22.056 176.926 21.9333 176.542 21.848L175.022 21.544C173.678 21.2667 173.006 20.5733 173.006 19.464C173.006 18.728 173.299 18.1413 173.886 17.704C174.472 17.2667 175.24 17.048 176.19 17.048C176.734 17.048 177.251 17.128 177.742 17.288C178.243 17.448 178.659 17.688 178.99 18.008L178.526 19.096C178.206 18.8187 177.838 18.6053 177.422 18.456C177.006 18.3067 176.595 18.232 176.19 18.232C175.635 18.232 175.214 18.3387 174.926 18.552C174.638 18.7547 174.494 19.032 174.494 19.384C174.494 19.9173 174.846 20.2587 175.55 20.408L177.07 20.712C177.763 20.8507 178.286 21.0853 178.638 21.416C179 21.7467 179.182 22.1947 179.182 22.76C179.182 23.5067 178.888 24.0933 178.302 24.52C177.715 24.936 176.936 25.144 175.966 25.144Z" fill="#3F3E43"/>
</svg>
