<svg width="207" height="40" viewBox="0 0 207 40" fill="none" xmlns="http://www.w3.org/2000/svg">
<rect width="207" height="40" rx="20" fill="white" fill-opacity="0.75"/>
<circle cx="20" cy="20" r="12" fill="#384ECE"/>
<path d="M14.5 19.5L19 24L26 17" stroke="white" stroke-width="2"/>
<path d="M53.312 25V13.72H54.976V23.576H60.56V25H53.312ZM65.278 25.144C64.4887 25.144 63.806 24.9787 63.23 24.648C62.654 24.3173 62.206 23.8533 61.886 23.256C61.5767 22.648 61.422 21.928 61.422 21.096C61.422 20.264 61.5767 19.5493 61.886 18.952C62.206 18.344 62.654 17.8747 63.23 17.544C63.806 17.2133 64.4887 17.048 65.278 17.048C66.046 17.048 66.718 17.2133 67.294 17.544C67.87 17.8747 68.318 18.344 68.638 18.952C68.958 19.5493 69.118 20.264 69.118 21.096C69.118 21.928 68.958 22.648 68.638 23.256C68.318 23.8533 67.87 24.3173 67.294 24.648C66.718 24.9787 66.046 25.144 65.278 25.144ZM65.278 23.896C65.9393 23.896 66.4727 23.656 66.878 23.176C67.2833 22.696 67.486 22.0027 67.486 21.096C67.486 20.1893 67.2833 19.5013 66.878 19.032C66.4727 18.552 65.9393 18.312 65.278 18.312C64.606 18.312 64.0673 18.552 63.662 19.032C63.2567 19.5013 63.054 20.1893 63.054 21.096C63.054 22.0027 63.2567 22.696 63.662 23.176C64.0673 23.656 64.606 23.896 65.278 23.896ZM71.5923 27.88L72.9843 24.792L69.7203 17.192H71.4483L73.8483 23.128L76.2803 17.192H77.9443L73.2883 27.88H71.5923ZM81.4445 25.144C80.9005 25.144 80.4152 25.0373 79.9885 24.824C79.5618 24.6107 79.2205 24.3227 78.9645 23.96C78.7192 23.5973 78.5965 23.1867 78.5965 22.728C78.5965 22.152 78.7405 21.6987 79.0285 21.368C79.3272 21.0373 79.8125 20.7973 80.4845 20.648C81.1672 20.4987 82.0845 20.424 83.2365 20.424H83.7805V20.008C83.7805 19.4 83.6525 18.9627 83.3965 18.696C83.1405 18.4293 82.7192 18.296 82.1325 18.296C81.6845 18.296 81.2365 18.3653 80.7885 18.504C80.3405 18.632 79.8818 18.84 79.4125 19.128L78.9165 17.992C79.3218 17.704 79.8285 17.4747 80.4365 17.304C81.0445 17.1333 81.6258 17.048 82.1805 17.048C83.2472 17.048 84.0365 17.304 84.5485 17.816C85.0605 18.3173 85.3165 19.1067 85.3165 20.184V25H83.7965V23.704C83.6045 24.152 83.3058 24.504 82.9005 24.76C82.4952 25.016 82.0098 25.144 81.4445 25.144ZM81.7645 23.992C82.3405 23.992 82.8205 23.7893 83.2045 23.384C83.5885 22.9787 83.7805 22.4667 83.7805 21.848V21.416H83.2525C82.4738 21.416 81.8605 21.4533 81.4125 21.528C80.9752 21.6027 80.6605 21.7307 80.4685 21.912C80.2872 22.0827 80.1965 22.3227 80.1965 22.632C80.1965 23.0373 80.3352 23.368 80.6125 23.624C80.8898 23.8693 81.2738 23.992 81.7645 23.992ZM90.0863 25.144C89.2329 25.144 88.5929 24.904 88.1663 24.424C87.7503 23.944 87.5423 23.24 87.5423 22.312V13.72H89.1583V22.216C89.1583 23.272 89.5903 23.8 90.4543 23.8C90.5823 23.8 90.6996 23.7947 90.8063 23.784C90.9236 23.7733 91.0409 23.752 91.1583 23.72L91.1263 25.016C90.7636 25.1013 90.4169 25.144 90.0863 25.144ZM95.589 25.144C94.6077 25.144 93.877 24.8933 93.397 24.392C92.917 23.8907 92.677 23.1653 92.677 22.216V18.44H91.157V17.192H92.677V14.84H94.293V17.192H96.709V18.44H94.293V22.088C94.293 22.6533 94.4103 23.08 94.645 23.368C94.8903 23.656 95.285 23.8 95.829 23.8C95.9997 23.8 96.165 23.784 96.325 23.752C96.485 23.7093 96.645 23.6613 96.805 23.608L97.061 24.824C96.901 24.92 96.677 24.9947 96.389 25.048C96.1117 25.112 95.845 25.144 95.589 25.144ZM99.0141 27.88L100.406 24.792L97.1421 17.192H98.8701L101.27 23.128L103.702 17.192H105.366L100.71 27.88H99.0141ZM110.906 25V13.72H115.578C116.794 13.72 117.732 14.024 118.394 14.632C119.055 15.2293 119.386 16.072 119.386 17.16C119.386 18.2587 119.055 19.112 118.394 19.72C117.732 20.3173 116.794 20.616 115.578 20.616H112.57V25H110.906ZM112.57 19.288H115.338C116.959 19.288 117.77 18.5787 117.77 17.16C117.77 15.752 116.959 15.048 115.338 15.048H112.57V19.288ZM120.839 25V17.192H122.407V18.584C122.812 17.656 123.655 17.1387 124.935 17.032L125.463 17L125.575 18.376L124.599 18.472C123.18 18.6107 122.471 19.3413 122.471 20.664V25H120.839ZM130.091 25.144C129.301 25.144 128.619 24.9787 128.043 24.648C127.467 24.3173 127.019 23.8533 126.699 23.256C126.389 22.648 126.235 21.928 126.235 21.096C126.235 20.264 126.389 19.5493 126.699 18.952C127.019 18.344 127.467 17.8747 128.043 17.544C128.619 17.2133 129.301 17.048 130.091 17.048C130.859 17.048 131.531 17.2133 132.107 17.544C132.683 17.8747 133.131 18.344 133.451 18.952C133.771 19.5493 133.931 20.264 133.931 21.096C133.931 21.928 133.771 22.648 133.451 23.256C133.131 23.8533 132.683 24.3173 132.107 24.648C131.531 24.9787 130.859 25.144 130.091 25.144ZM130.091 23.896C130.752 23.896 131.285 23.656 131.691 23.176C132.096 22.696 132.299 22.0027 132.299 21.096C132.299 20.1893 132.096 19.5013 131.691 19.032C131.285 18.552 130.752 18.312 130.091 18.312C129.419 18.312 128.88 18.552 128.475 19.032C128.069 19.5013 127.867 20.1893 127.867 21.096C127.867 22.0027 128.069 22.696 128.475 23.176C128.88 23.656 129.419 23.896 130.091 23.896ZM139.281 28.024C138.577 28.024 137.921 27.9387 137.313 27.768C136.705 27.608 136.167 27.352 135.697 27L136.193 25.848C136.663 26.168 137.143 26.4027 137.633 26.552C138.124 26.7013 138.636 26.776 139.169 26.776C140.663 26.776 141.409 26.0293 141.409 24.536V23.304C141.185 23.7733 140.833 24.1413 140.353 24.408C139.884 24.6747 139.356 24.808 138.769 24.808C138.065 24.808 137.452 24.648 136.929 24.328C136.407 23.9973 136.001 23.544 135.713 22.968C135.425 22.3813 135.281 21.6987 135.281 20.92C135.281 20.152 135.425 19.48 135.713 18.904C136.001 18.3173 136.407 17.864 136.929 17.544C137.452 17.2133 138.065 17.048 138.769 17.048C139.367 17.048 139.9 17.1813 140.369 17.448C140.839 17.7147 141.185 18.0827 141.409 18.552V17.192H142.977V24.344C142.977 25.5707 142.663 26.488 142.033 27.096C141.404 27.7147 140.487 28.024 139.281 28.024ZM139.153 23.544C139.836 23.544 140.38 23.3093 140.785 22.84C141.191 22.3707 141.393 21.7307 141.393 20.92C141.393 20.1093 141.191 19.4747 140.785 19.016C140.38 18.5467 139.836 18.312 139.153 18.312C138.471 18.312 137.927 18.5467 137.521 19.016C137.116 19.4747 136.913 20.1093 136.913 20.92C136.913 21.7307 137.116 22.3707 137.521 22.84C137.927 23.3093 138.471 23.544 139.153 23.544ZM145.245 25V17.192H146.813V18.584C147.219 17.656 148.061 17.1387 149.341 17.032L149.869 17L149.981 18.376L149.005 18.472C147.587 18.6107 146.877 19.3413 146.877 20.664V25H145.245ZM153.632 25.144C153.088 25.144 152.603 25.0373 152.176 24.824C151.749 24.6107 151.408 24.3227 151.152 23.96C150.907 23.5973 150.784 23.1867 150.784 22.728C150.784 22.152 150.928 21.6987 151.216 21.368C151.515 21.0373 152 20.7973 152.672 20.648C153.355 20.4987 154.272 20.424 155.424 20.424H155.968V20.008C155.968 19.4 155.84 18.9627 155.584 18.696C155.328 18.4293 154.907 18.296 154.32 18.296C153.872 18.296 153.424 18.3653 152.976 18.504C152.528 18.632 152.069 18.84 151.6 19.128L151.104 17.992C151.509 17.704 152.016 17.4747 152.624 17.304C153.232 17.1333 153.813 17.048 154.368 17.048C155.435 17.048 156.224 17.304 156.736 17.816C157.248 18.3173 157.504 19.1067 157.504 20.184V25H155.984V23.704C155.792 24.152 155.493 24.504 155.088 24.76C154.683 25.016 154.197 25.144 153.632 25.144ZM153.952 23.992C154.528 23.992 155.008 23.7893 155.392 23.384C155.776 22.9787 155.968 22.4667 155.968 21.848V21.416H155.44C154.661 21.416 154.048 21.4533 153.6 21.528C153.163 21.6027 152.848 21.7307 152.656 21.912C152.475 22.0827 152.384 22.3227 152.384 22.632C152.384 23.0373 152.523 23.368 152.8 23.624C153.077 23.8693 153.461 23.992 153.952 23.992ZM159.762 25V17.192H161.33V18.456C161.564 18.008 161.89 17.6613 162.306 17.416C162.722 17.1707 163.207 17.048 163.762 17.048C164.956 17.048 165.73 17.5707 166.082 18.616C166.327 18.1253 166.679 17.7413 167.138 17.464C167.596 17.1867 168.119 17.048 168.706 17.048C170.455 17.048 171.33 18.0933 171.33 20.184V25H169.714V20.264C169.714 19.6027 169.596 19.1173 169.362 18.808C169.138 18.4987 168.764 18.344 168.242 18.344C167.655 18.344 167.191 18.552 166.85 18.968C166.508 19.3733 166.338 19.928 166.338 20.632V25H164.722V20.264C164.722 19.6027 164.61 19.1173 164.386 18.808C164.162 18.4987 163.788 18.344 163.266 18.344C162.679 18.344 162.215 18.552 161.874 18.968C161.543 19.3733 161.378 19.928 161.378 20.632V25H159.762ZM176.325 25.144C175.685 25.144 175.088 25.064 174.533 24.904C173.978 24.7333 173.514 24.4987 173.141 24.2L173.605 23.112C174 23.3893 174.432 23.6027 174.901 23.752C175.381 23.9013 175.861 23.976 176.341 23.976C176.906 23.976 177.333 23.8747 177.621 23.672C177.909 23.4693 178.053 23.1973 178.053 22.856C178.053 22.5787 177.957 22.3653 177.765 22.216C177.573 22.056 177.285 21.9333 176.901 21.848L175.381 21.544C174.037 21.2667 173.365 20.5733 173.365 19.464C173.365 18.728 173.658 18.1413 174.245 17.704C174.832 17.2667 175.6 17.048 176.549 17.048C177.093 17.048 177.61 17.128 178.101 17.288C178.602 17.448 179.018 17.688 179.349 18.008L178.885 19.096C178.565 18.8187 178.197 18.6053 177.781 18.456C177.365 18.3067 176.954 18.232 176.549 18.232C175.994 18.232 175.573 18.3387 175.285 18.552C174.997 18.7547 174.853 19.032 174.853 19.384C174.853 19.9173 175.205 20.2587 175.909 20.408L177.429 20.712C178.122 20.8507 178.645 21.0853 178.997 21.416C179.36 21.7467 179.541 22.1947 179.541 22.76C179.541 23.5067 179.248 24.0933 178.661 24.52C178.074 24.936 177.296 25.144 176.325 25.144Z" fill="#3F3E43"/>
</svg>
