<svg width="179" height="40" viewBox="0 0 179 40" fill="none" xmlns="http://www.w3.org/2000/svg">
<rect width="179" height="40" rx="20" fill="white" fill-opacity="0.75"/>
<circle cx="20" cy="20" r="12" fill="#384ECE"/>
<path d="M14.5 19.5L19 24L26 17" stroke="white" stroke-width="2"/>
<path d="M53.312 25V13.72H60.48V15.064H54.976V18.664H60.144V20.008H54.976V25H53.312ZM61.8391 25V17.192H63.4071V18.584C63.8125 17.656 64.6551 17.1387 65.9351 17.032L66.4631 17L66.5751 18.376L65.5991 18.472C64.1805 18.6107 63.4711 19.3413 63.4711 20.664V25H61.8391ZM71.3625 25.144C70.0825 25.144 69.0745 24.7867 68.3385 24.072C67.6025 23.3467 67.2345 22.36 67.2345 21.112C67.2345 20.312 67.3945 19.608 67.7145 19C68.0452 18.3813 68.4985 17.9013 69.0745 17.56C69.6505 17.2187 70.3118 17.048 71.0585 17.048C72.1358 17.048 72.9838 17.3947 73.6025 18.088C74.2212 18.7707 74.5305 19.7147 74.5305 20.92V21.464H68.8025C68.9198 23.0853 69.7785 23.896 71.3785 23.896C71.8265 23.896 72.2638 23.8267 72.6905 23.688C73.1278 23.5493 73.5385 23.32 73.9225 23L74.4025 24.12C74.0505 24.44 73.5972 24.6907 73.0425 24.872C72.4878 25.0533 71.9278 25.144 71.3625 25.144ZM71.1225 18.184C70.4505 18.184 69.9172 18.392 69.5225 18.808C69.1278 19.224 68.8878 19.7787 68.8025 20.472H73.1705C73.1385 19.7467 72.9465 19.1867 72.5945 18.792C72.2425 18.3867 71.7518 18.184 71.1225 18.184ZM79.9563 25.144C78.6763 25.144 77.6683 24.7867 76.9323 24.072C76.1963 23.3467 75.8283 22.36 75.8283 21.112C75.8283 20.312 75.9883 19.608 76.3083 19C76.6389 18.3813 77.0923 17.9013 77.6683 17.56C78.2443 17.2187 78.9056 17.048 79.6523 17.048C80.7296 17.048 81.5776 17.3947 82.1963 18.088C82.8149 18.7707 83.1243 19.7147 83.1243 20.92V21.464H77.3963C77.5136 23.0853 78.3723 23.896 79.9723 23.896C80.4203 23.896 80.8576 23.8267 81.2843 23.688C81.7216 23.5493 82.1323 23.32 82.5163 23L82.9963 24.12C82.6443 24.44 82.1909 24.6907 81.6363 24.872C81.0816 25.0533 80.5216 25.144 79.9563 25.144ZM79.7163 18.184C79.0443 18.184 78.5109 18.392 78.1163 18.808C77.7216 19.224 77.4816 19.7787 77.3963 20.472H81.7643C81.7323 19.7467 81.5403 19.1867 81.1883 18.792C80.8363 18.3867 80.3456 18.184 79.7163 18.184ZM93.0251 25.144C92.1398 25.144 91.3291 25.032 90.5931 24.808C89.8571 24.5733 89.2331 24.248 88.7211 23.832L89.2491 22.52C89.7825 22.9253 90.3531 23.2293 90.9611 23.432C91.5691 23.6347 92.2571 23.736 93.0251 23.736C93.9318 23.736 94.5985 23.576 95.0251 23.256C95.4625 22.9253 95.6811 22.4987 95.6811 21.976C95.6811 21.5493 95.5265 21.2133 95.2171 20.968C94.9078 20.712 94.3905 20.5093 93.6651 20.36L91.9531 20.008C90.9398 19.7947 90.1825 19.4427 89.6811 18.952C89.1905 18.4613 88.9451 17.8 88.9451 16.968C88.9451 16.296 89.1211 15.704 89.4731 15.192C89.8358 14.68 90.3371 14.2853 90.9771 14.008C91.6171 13.72 92.3531 13.576 93.1851 13.576C93.9531 13.576 94.6625 13.6933 95.3131 13.928C95.9745 14.152 96.5345 14.4827 96.9931 14.92L96.4491 16.184C95.5425 15.384 94.4491 14.984 93.1691 14.984C92.3798 14.984 91.7505 15.16 91.2811 15.512C90.8225 15.864 90.5931 16.3333 90.5931 16.92C90.5931 17.368 90.7371 17.7253 91.0251 17.992C91.3131 18.2587 91.7931 18.4613 92.4651 18.6L94.1611 18.952C95.2278 19.176 96.0225 19.5227 96.5451 19.992C97.0678 20.4507 97.3291 21.0747 97.3291 21.864C97.3291 22.5253 97.1531 23.1013 96.8011 23.592C96.4491 24.0827 95.9531 24.4667 95.3131 24.744C94.6731 25.0107 93.9105 25.144 93.0251 25.144ZM99.0423 25V13.72H100.658V18.408C100.925 17.96 101.282 17.624 101.73 17.4C102.189 17.1653 102.701 17.048 103.266 17.048C105.112 17.048 106.034 18.0933 106.034 20.184V25H104.418V20.28C104.418 19.608 104.285 19.1173 104.018 18.808C103.762 18.4987 103.357 18.344 102.802 18.344C102.152 18.344 101.629 18.552 101.234 18.968C100.85 19.3733 100.658 19.912 100.658 20.584V25H99.0423ZM108.117 15.384V13.704H110.005V15.384H108.117ZM108.261 25V17.192H109.877V25H108.261ZM112.152 27.88V17.192H113.736V18.52C113.96 18.072 114.301 17.7147 114.76 17.448C115.218 17.1813 115.746 17.048 116.344 17.048C117.037 17.048 117.64 17.2133 118.152 17.544C118.674 17.8747 119.074 18.344 119.352 18.952C119.64 19.5493 119.784 20.264 119.784 21.096C119.784 21.928 119.64 22.648 119.352 23.256C119.074 23.864 118.674 24.3333 118.152 24.664C117.64 24.984 117.037 25.144 116.344 25.144C115.768 25.144 115.25 25.0213 114.792 24.776C114.344 24.52 114.002 24.1733 113.768 23.736V27.88H112.152ZM115.944 23.896C116.616 23.896 117.149 23.656 117.544 23.176C117.949 22.696 118.152 22.0027 118.152 21.096C118.152 20.1893 117.949 19.5013 117.544 19.032C117.149 18.552 116.616 18.312 115.944 18.312C115.272 18.312 114.733 18.552 114.328 19.032C113.933 19.5013 113.736 20.1893 113.736 21.096C113.736 22.0027 113.933 22.696 114.328 23.176C114.733 23.656 115.272 23.896 115.944 23.896ZM121.605 27.88V17.192H123.189V18.52C123.413 18.072 123.754 17.7147 124.213 17.448C124.671 17.1813 125.199 17.048 125.797 17.048C126.49 17.048 127.093 17.2133 127.605 17.544C128.127 17.8747 128.527 18.344 128.805 18.952C129.093 19.5493 129.237 20.264 129.237 21.096C129.237 21.928 129.093 22.648 128.805 23.256C128.527 23.864 128.127 24.3333 127.605 24.664C127.093 24.984 126.49 25.144 125.797 25.144C125.221 25.144 124.703 25.0213 124.245 24.776C123.797 24.52 123.455 24.1733 123.221 23.736V27.88H121.605ZM125.397 23.896C126.069 23.896 126.602 23.656 126.997 23.176C127.402 22.696 127.605 22.0027 127.605 21.096C127.605 20.1893 127.402 19.5013 126.997 19.032C126.602 18.552 126.069 18.312 125.397 18.312C124.725 18.312 124.186 18.552 123.781 19.032C123.386 19.5013 123.189 20.1893 123.189 21.096C123.189 22.0027 123.386 22.696 123.781 23.176C124.186 23.656 124.725 23.896 125.397 23.896ZM130.914 15.384V13.704H132.802V15.384H130.914ZM131.058 25V17.192H132.674V25H131.058ZM134.949 25V17.192H136.517V18.488C136.783 18.0187 137.146 17.6613 137.605 17.416C138.074 17.1707 138.597 17.048 139.173 17.048C141.018 17.048 141.941 18.0933 141.941 20.184V25H140.325V20.28C140.325 19.608 140.191 19.1173 139.925 18.808C139.669 18.4987 139.263 18.344 138.709 18.344C138.058 18.344 137.535 18.552 137.141 18.968C136.757 19.3733 136.565 19.912 136.565 20.584V25H134.949ZM147.703 28.024C146.999 28.024 146.343 27.9387 145.735 27.768C145.127 27.608 144.589 27.352 144.119 27L144.615 25.848C145.085 26.168 145.565 26.4027 146.055 26.552C146.546 26.7013 147.058 26.776 147.591 26.776C149.085 26.776 149.831 26.0293 149.831 24.536V23.304C149.607 23.7733 149.255 24.1413 148.775 24.408C148.306 24.6747 147.778 24.808 147.191 24.808C146.487 24.808 145.874 24.648 145.351 24.328C144.829 23.9973 144.423 23.544 144.135 22.968C143.847 22.3813 143.703 21.6987 143.703 20.92C143.703 20.152 143.847 19.48 144.135 18.904C144.423 18.3173 144.829 17.864 145.351 17.544C145.874 17.2133 146.487 17.048 147.191 17.048C147.789 17.048 148.322 17.1813 148.791 17.448C149.261 17.7147 149.607 18.0827 149.831 18.552V17.192H151.399V24.344C151.399 25.5707 151.085 26.488 150.455 27.096C149.826 27.7147 148.909 28.024 147.703 28.024ZM147.575 23.544C148.258 23.544 148.802 23.3093 149.207 22.84C149.613 22.3707 149.815 21.7307 149.815 20.92C149.815 20.1093 149.613 19.4747 149.207 19.016C148.802 18.5467 148.258 18.312 147.575 18.312C146.893 18.312 146.349 18.5467 145.943 19.016C145.538 19.4747 145.335 20.1093 145.335 20.92C145.335 21.7307 145.538 22.3707 145.943 22.84C146.349 23.3093 146.893 23.544 147.575 23.544Z" fill="#3F3E43"/>
</svg>
