<svg width="297" height="54" viewBox="0 0 297 54" fill="none" xmlns="http://www.w3.org/2000/svg">
<g clip-path="url(#clip0_11_69)">
<path d="M26.7711 18.6792C24.3816 18.6792 22.4446 16.7279 22.4446 14.3207C22.4446 11.9136 24.3816 9.96227 26.7711 9.96227C29.1607 9.96227 31.0977 11.9136 31.0977 14.3207C31.0977 16.7279 29.1607 18.6792 26.7711 18.6792Z" fill="#FF4104"/>
<path fill-rule="evenodd" clip-rule="evenodd" d="M3.97544 17.8975C4.90912 18.3966 5.97423 18.6792 7.10488 18.6792C10.7977 18.6792 13.7914 15.6635 13.7914 11.9434C13.7914 10.7239 13.4697 9.58018 12.9072 8.59351C15.9635 6.94132 19.484 6 23.2312 6C34.9615 6 44.4707 15.2246 44.4707 26.6038C44.4707 27.1576 44.4482 27.7063 44.404 28.2491C43.7656 20.9903 38.6113 15.0043 31.7227 13.031C31.1544 10.8104 29.153 9.16981 26.7711 9.16981C24.3892 9.16981 22.3878 10.8104 21.8195 13.031C14.4542 15.1408 9.0715 21.838 9.0715 29.7736C9.0715 38.8433 16.1027 46.2953 25.0888 47.1298C24.4767 47.1812 23.8571 47.2075 23.2312 47.2075C11.5009 47.2075 1.99165 37.9829 1.99165 26.6038C1.99165 23.4924 2.70256 20.5422 3.97544 17.8975Z" fill="#3847C8"/>
<path d="M7.10452 17.8868C3.84612 17.8868 1.20464 15.2258 1.20464 11.9434C1.20464 8.66095 3.84612 6 7.10452 6C10.3629 6 13.0044 8.66095 13.0044 11.9434C13.0044 15.2258 10.3629 17.8868 7.10452 17.8868Z" fill="#3847C8"/>
<path d="M26.7707 27.9148C24.8306 26.1064 21.8323 26.1665 19.9632 28.1102C18.0948 30.0548 18.0303 33.1517 19.7682 35.1718L26.7724 42.4528L33.775 35.1718C35.5127 33.1517 35.4475 30.0497 33.5801 28.1102C31.7092 26.1691 28.7168 26.1039 26.7707 27.9148Z" fill="#FF4104"/>
<path fill-rule="evenodd" clip-rule="evenodd" d="M21.8033 15.5095C22.3489 17.7631 24.366 19.4358 26.7711 19.4358C29.1763 19.4358 31.1935 17.7631 31.739 15.5095C37.7727 17.5889 42.1108 23.351 42.1108 30.1339C42.1108 34.7614 40.0917 38.9138 36.8925 41.7459C38.6786 39.557 39.7509 36.7546 39.7509 33.6999C39.7509 26.6974 34.1158 21.0207 27.1645 21.0207C20.2132 21.0207 14.5781 26.6974 14.5781 33.6999C14.5781 37.7691 16.4809 41.3905 19.439 43.7105C14.6684 41.0904 11.4315 35.993 11.4315 30.1339C11.4315 23.351 15.7696 17.5889 21.8033 15.5095Z" fill="#FF4104"/>
</g>
<path d="M86.676 37.5H82.784V29.268H74.132V37.5H70.268V17.648H74.132V25.628H82.784V17.648H86.676V37.5ZM89.1986 33.748C89.1986 32.572 89.5813 31.6293 90.3466 30.92C91.112 30.2107 92.1013 29.7627 93.3146 29.576L96.7026 29.072C97.3933 28.9787 97.7386 28.652 97.7386 28.092C97.7386 27.5693 97.5333 27.14 97.1226 26.804C96.7306 26.468 96.1613 26.3 95.4146 26.3C94.6306 26.3 94.0053 26.5147 93.5386 26.944C93.0906 27.3733 92.8386 27.9053 92.7826 28.54L89.4786 27.84C89.6093 26.6453 90.1973 25.5907 91.2426 24.676C92.288 23.7613 93.6693 23.304 95.3866 23.304C97.44 23.304 98.952 23.7987 99.9226 24.788C100.893 25.7587 101.379 27.0093 101.379 28.54V35.316C101.379 36.1373 101.435 36.8653 101.547 37.5H98.1306C98.0373 37.0893 97.9906 36.5387 97.9906 35.848C97.1133 37.2107 95.76 37.892 93.9306 37.892C92.512 37.892 91.364 37.4813 90.4866 36.66C89.628 35.8387 89.1986 34.868 89.1986 33.748ZM94.7146 35.12C95.592 35.12 96.3106 34.8773 96.8706 34.392C97.4493 33.888 97.7386 33.0667 97.7386 31.928V31.312L94.6306 31.788C93.492 31.956 92.9226 32.5347 92.9226 33.524C92.9226 33.972 93.0813 34.3547 93.3986 34.672C93.716 34.9707 94.1546 35.12 94.7146 35.12ZM108.016 42.82H104.292V23.724H107.904V25.404C108.24 24.844 108.782 24.3773 109.528 24.004C110.275 23.612 111.143 23.416 112.132 23.416C114.092 23.416 115.642 24.088 116.78 25.432C117.919 26.7573 118.488 28.4747 118.488 30.584C118.488 32.6933 117.882 34.4293 116.668 35.792C115.474 37.1547 113.915 37.836 111.992 37.836C110.163 37.836 108.838 37.276 108.016 36.156V42.82ZM113.84 33.468C114.494 32.7587 114.82 31.8067 114.82 30.612C114.82 29.4173 114.494 28.4747 113.84 27.784C113.206 27.0933 112.394 26.748 111.404 26.748C110.415 26.748 109.594 27.1027 108.94 27.812C108.287 28.5027 107.96 29.436 107.96 30.612C107.96 31.788 108.287 32.7307 108.94 33.44C109.594 34.1493 110.415 34.504 111.404 34.504C112.394 34.504 113.206 34.1587 113.84 33.468ZM124.321 42.82H120.597V23.724H124.209V25.404C124.545 24.844 125.086 24.3773 125.833 24.004C126.58 23.612 127.448 23.416 128.437 23.416C130.397 23.416 131.946 24.088 133.085 25.432C134.224 26.7573 134.793 28.4747 134.793 30.584C134.793 32.6933 134.186 34.4293 132.973 35.792C131.778 37.1547 130.22 37.836 128.297 37.836C126.468 37.836 125.142 37.276 124.321 36.156V42.82ZM130.145 33.468C130.798 32.7587 131.125 31.8067 131.125 30.612C131.125 29.4173 130.798 28.4747 130.145 27.784C129.51 27.0933 128.698 26.748 127.709 26.748C126.72 26.748 125.898 27.1027 125.245 27.812C124.592 28.5027 124.265 29.436 124.265 30.612C124.265 31.788 124.592 32.7307 125.245 33.44C125.898 34.1493 126.72 34.504 127.709 34.504C128.698 34.504 129.51 34.1587 130.145 33.468ZM141.005 42.932H137.057L140.305 35.764L134.453 23.724H138.625L142.293 31.788L145.681 23.724H149.657L141.005 42.932ZM155.245 37.5H151.353V17.648H163.897V21.316H155.217V26.216H162.945V29.772H155.245V37.5ZM164.131 33.748C164.131 32.572 164.514 31.6293 165.279 30.92C166.045 30.2107 167.034 29.7627 168.247 29.576L171.635 29.072C172.326 28.9787 172.671 28.652 172.671 28.092C172.671 27.5693 172.466 27.14 172.055 26.804C171.663 26.468 171.094 26.3 170.347 26.3C169.563 26.3 168.938 26.5147 168.471 26.944C168.023 27.3733 167.771 27.9053 167.715 28.54L164.411 27.84C164.542 26.6453 165.13 25.5907 166.175 24.676C167.221 23.7613 168.602 23.304 170.319 23.304C172.373 23.304 173.885 23.7987 174.855 24.788C175.826 25.7587 176.311 27.0093 176.311 28.54V35.316C176.311 36.1373 176.367 36.8653 176.479 37.5H173.063C172.97 37.0893 172.923 36.5387 172.923 35.848C172.046 37.2107 170.693 37.892 168.863 37.892C167.445 37.892 166.297 37.4813 165.419 36.66C164.561 35.8387 164.131 34.868 164.131 33.748ZM169.647 35.12C170.525 35.12 171.243 34.8773 171.803 34.392C172.382 33.888 172.671 33.0667 172.671 31.928V31.312L169.563 31.788C168.425 31.956 167.855 32.5347 167.855 33.524C167.855 33.972 168.014 34.3547 168.331 34.672C168.649 34.9707 169.087 35.12 169.647 35.12ZM182.949 37.5H179.225V23.724H182.781V25.404C183.136 24.7693 183.696 24.2653 184.461 23.892C185.227 23.5187 186.011 23.332 186.813 23.332C188.811 23.332 190.173 24.0973 190.901 25.628C191.891 24.0973 193.347 23.332 195.269 23.332C196.669 23.332 197.845 23.7707 198.797 24.648C199.768 25.5253 200.253 26.832 200.253 28.568V37.5H196.641V29.324C196.641 28.54 196.436 27.9147 196.025 27.448C195.633 26.9627 195.027 26.72 194.205 26.72C193.44 26.72 192.824 26.9813 192.357 27.504C191.891 28.0267 191.657 28.6707 191.657 29.436V37.5H187.961V29.324C187.961 28.54 187.756 27.9147 187.345 27.448C186.935 26.9627 186.328 26.72 185.525 26.72C184.741 26.72 184.116 26.9813 183.649 27.504C183.183 28.008 182.949 28.652 182.949 29.436V37.5ZM206.91 37.5H203.186V23.724H206.91V37.5ZM202.738 19.216C202.738 18.5813 202.962 18.04 203.41 17.592C203.858 17.1253 204.399 16.892 205.034 16.892C205.669 16.892 206.21 17.116 206.658 17.564C207.106 18.012 207.33 18.5627 207.33 19.216C207.33 19.832 207.106 20.364 206.658 20.812C206.21 21.26 205.669 21.484 205.034 21.484C204.399 21.484 203.858 21.26 203.41 20.812C202.962 20.364 202.738 19.832 202.738 19.216ZM213.781 37.5H210.057V17.228H213.781V37.5ZM221.688 42.932H217.74L220.988 35.764L215.136 23.724H219.308L222.976 31.788L226.364 23.724H230.34L221.688 42.932Z" fill="#3847C8"/>
<path d="M245.392 22.38L241.92 23.444C241.789 22.7347 241.434 22.0907 240.856 21.512C240.277 20.9333 239.428 20.644 238.308 20.644C237.393 20.644 236.646 20.896 236.068 21.4C235.489 21.8853 235.2 22.4733 235.2 23.164C235.2 24.3773 235.918 25.124 237.356 25.404L240.128 25.936C241.882 26.272 243.245 26.972 244.216 28.036C245.186 29.1 245.672 30.3507 245.672 31.788C245.672 33.4307 245.018 34.868 243.712 36.1C242.424 37.3133 240.688 37.92 238.504 37.92C237.253 37.92 236.124 37.7333 235.116 37.36C234.108 36.9867 233.296 36.492 232.68 35.876C232.064 35.2413 231.578 34.5787 231.224 33.888C230.888 33.1787 230.682 32.4507 230.608 31.704L234.192 30.752C234.285 31.816 234.696 32.7027 235.424 33.412C236.17 34.1213 237.206 34.476 238.532 34.476C239.54 34.476 240.324 34.252 240.884 33.804C241.462 33.356 241.752 32.768 241.752 32.04C241.752 31.4613 241.537 30.9667 241.108 30.556C240.697 30.1267 240.109 29.8373 239.344 29.688L236.572 29.128C234.966 28.792 233.697 28.1293 232.764 27.14C231.83 26.1507 231.364 24.9187 231.364 23.444C231.364 21.6893 232.036 20.2147 233.38 19.02C234.742 17.8253 236.376 17.228 238.28 17.228C239.418 17.228 240.436 17.3867 241.332 17.704C242.228 18.0213 242.946 18.4507 243.488 18.992C244.029 19.5147 244.449 20.056 244.748 20.616C245.046 21.176 245.261 21.764 245.392 22.38ZM252.543 19.608V23.724H255.315V27.028H252.543V32.796C252.543 33.3747 252.674 33.7853 252.935 34.028C253.196 34.2707 253.607 34.392 254.167 34.392C254.671 34.392 255.054 34.3547 255.315 34.28V37.36C254.774 37.584 254.074 37.696 253.215 37.696C251.871 37.696 250.807 37.3227 250.023 36.576C249.239 35.8107 248.847 34.7653 248.847 33.44V27.028H246.355V23.724H247.055C247.746 23.724 248.268 23.528 248.623 23.136C248.996 22.7253 249.183 22.1933 249.183 21.54V19.608H252.543ZM261.198 33.496C261.888 34.1867 262.719 34.532 263.69 34.532C264.66 34.532 265.482 34.1867 266.154 33.496C266.844 32.8053 267.19 31.844 267.19 30.612C267.19 29.38 266.844 28.4187 266.154 27.728C265.482 27.0373 264.66 26.692 263.69 26.692C262.719 26.692 261.888 27.0373 261.198 27.728C260.526 28.4187 260.19 29.38 260.19 30.612C260.19 31.844 260.526 32.8053 261.198 33.496ZM258.51 25.376C259.891 23.9947 261.618 23.304 263.69 23.304C265.762 23.304 267.479 23.9947 268.842 25.376C270.223 26.7573 270.914 28.5027 270.914 30.612C270.914 32.7213 270.223 34.4667 268.842 35.848C267.479 37.2293 265.762 37.92 263.69 37.92C261.618 37.92 259.891 37.2293 258.51 35.848C257.147 34.4667 256.466 32.7213 256.466 30.612C256.466 28.5027 257.147 26.7573 258.51 25.376ZM281.413 23.668V27.42C281.04 27.3453 280.666 27.308 280.293 27.308C279.229 27.308 278.37 27.616 277.717 28.232C277.064 28.8293 276.737 29.8187 276.737 31.2V37.5H273.013V23.724H276.625V25.768C277.297 24.3307 278.604 23.612 280.545 23.612C280.75 23.612 281.04 23.6307 281.413 23.668ZM285.772 29.044H291.932C291.895 28.2787 291.615 27.6347 291.092 27.112C290.588 26.5893 289.841 26.328 288.852 26.328C287.956 26.328 287.228 26.608 286.668 27.168C286.108 27.728 285.809 28.3533 285.772 29.044ZM292.296 32.628L295.404 33.552C295.031 34.8213 294.293 35.8667 293.192 36.688C292.109 37.5093 290.756 37.92 289.132 37.92C287.153 37.92 285.473 37.2573 284.092 35.932C282.711 34.588 282.02 32.796 282.02 30.556C282.02 28.428 282.692 26.692 284.036 25.348C285.38 23.9853 286.967 23.304 288.796 23.304C290.924 23.304 292.585 23.9387 293.78 25.208C294.993 26.4773 295.6 28.2227 295.6 30.444C295.6 30.5933 295.591 30.7613 295.572 30.948C295.572 31.1347 295.572 31.284 295.572 31.396L295.544 31.592H285.688C285.725 32.488 286.08 33.2347 286.752 33.832C287.424 34.4293 288.227 34.728 289.16 34.728C290.747 34.728 291.792 34.028 292.296 32.628Z" fill="#FF4104"/>
<defs>
<clipPath id="clip0_11_69">
<rect width="44" height="54" fill="white" transform="matrix(-1 0 0 1 44 0)"/>
</clipPath>
</defs>
</svg>
